<svg width="461" height="454" viewBox="0 0 461 454" fill="none" xmlns="http://www.w3.org/2000/svg">
<path d="M453.46 162.441L451.773 167.387" stroke="#232323" stroke-width="2" stroke-miterlimit="10"/>
<path d="M448.188 160.555L446.289 165.566" stroke="#232323" stroke-width="2" stroke-miterlimit="10"/>
<path d="M7.21973 162.105L8.90622 167.056" stroke="#232323" stroke-width="2" stroke-miterlimit="10"/>
<path d="M12.4854 160.225L14.3838 165.236" stroke="#232323" stroke-width="2" stroke-miterlimit="10"/>
<path d="M456.984 160.793C455.528 160.274 453.927 161.033 453.409 162.49C453.927 161.033 453.168 159.431 451.713 158.912C450.257 158.394 448.656 159.152 448.138 160.609C448.656 159.152 447.898 157.55 446.442 157.031C444.987 156.513 443.385 157.272 442.867 158.728L439.009 169.547C439.527 168.09 438.769 166.487 437.313 165.969C435.858 165.45 434.256 166.209 433.738 167.666L430.686 176.221C421.053 197.09 416.362 205.919 408.957 213.881C394.039 229.922 378.758 215.408 378.758 215.408C375.075 212.419 371.41 209.03 367.812 205.372C368.758 198.777 369.258 192.041 369.258 185.187C369.258 107.502 306.327 44.5293 228.704 44.5293C151.082 44.5293 88.1511 107.498 88.1511 185.183C88.1511 193.064 88.8105 200.79 90.0541 208.318C87.421 210.859 84.7596 213.235 82.0841 215.403C82.0841 215.403 66.7989 229.917 51.8858 213.876C44.4811 205.914 39.7895 197.08 30.1568 176.217L27.1045 167.661C26.5863 166.204 24.9848 165.445 23.5293 165.964C22.0738 166.483 21.3154 168.085 21.8335 169.542L17.9757 158.723C17.4576 157.267 15.856 156.508 14.4005 157.026C12.945 157.545 12.1867 159.148 12.7048 160.604C12.1867 159.148 10.5851 158.389 9.12961 158.907C7.6741 159.426 6.91573 161.029 7.43387 162.485C6.91573 161.029 5.3142 160.27 3.85869 160.788C2.40318 161.307 1.64481 162.909 2.16295 164.366L8.99301 183.514C20.2932 217.176 34.6081 233.665 46.7515 241.65C59.0833 249.758 74.9714 249.81 87.5811 242.15C90.9067 240.132 94.1474 237.776 97.2939 235.183C112.866 276.137 146.993 307.928 189.406 320.259V424.715C184.069 424.399 180.084 424.752 177.14 425.37C171.181 426.624 166.645 431.922 166.494 438.286C166.457 439.931 166.706 441.425 167.14 442.759C168.859 448.053 173.744 451.499 179.076 451.499H206.556C211.201 451.499 214.964 447.553 214.964 442.684V424.71V325.171C219.486 325.61 224.065 325.841 228.7 325.841C237.353 325.841 245.822 325.053 254.042 323.554V424.715C248.705 424.399 244.72 424.752 241.776 425.37C235.822 426.624 231.281 431.922 231.13 438.286C231.093 439.931 231.342 441.425 231.776 442.759C233.495 448.053 238.38 451.499 243.712 451.499H271.192C275.836 451.499 279.6 447.553 279.6 442.684V424.71V317.497H276.491C315.686 303.318 346.775 272.196 360.934 232.967C364.886 236.451 369.003 239.572 373.257 242.155C385.871 249.815 401.755 249.763 414.086 241.655C426.23 233.67 440.54 217.181 451.845 183.519L458.675 164.371C459.193 162.914 458.435 161.311 456.984 160.793Z" fill="#FFA800" stroke="#232323" stroke-width="4" stroke-miterlimit="10"/>
<path d="M251.202 137.459C252.313 136.526 254.579 135.05 257.966 134.824C261.659 134.579 265.243 136.478 266.892 139.792C267.608 141.23 268.211 143.083 268.465 145.435C268.828 148.805 268.173 152.223 266.557 155.202C263.482 160.868 255.865 169.891 238.116 171.8C238.116 171.8 214.399 174.751 201.865 165.28C201.865 165.28 189.896 157.069 192.731 146.986C193.579 143.974 195.793 141.447 198.756 140.438C201.554 139.486 205.732 139.302 211.154 142.475C213.876 144.068 216.868 145.18 219.986 145.661C226.566 146.679 237.367 146.778 247.942 139.943C249.087 139.213 250.151 138.34 251.202 137.459Z" fill="#FFD361" stroke="#232323" stroke-width="2" stroke-miterlimit="10"/>
<path d="M217.67 151.451C217.67 151.451 229.8 152.936 238.712 151.305C241.387 150.814 243.874 149.721 245.919 148.137C248.118 146.426 251.632 144.022 253.738 144.234C253.738 144.234 257.647 144.493 259.343 147.458C259.343 147.458 262 151.776 257.205 156.419C257.205 156.419 247.544 164.089 237.807 164.282C237.807 164.282 227.473 165.131 218.985 164.461C213.61 164.037 208.57 161.925 204.886 158.479C202.022 155.802 199.573 152.337 201.448 149.325C201.448 149.325 203.365 145.521 208.9 149.259C208.89 149.259 211.622 150.937 217.67 151.451Z" fill="#232323" stroke="#232323" stroke-width="1.1254" stroke-miterlimit="10"/>
<path d="M214.833 163.437C214.833 163.437 218.625 156.155 227.994 155.636C227.994 155.636 235.888 154.736 239.134 156.15C239.134 156.15 244.546 158.078 246.011 162.589C246.006 162.598 229.544 166.403 214.833 163.437Z" fill="#E34935" stroke="#232323" stroke-width="1.1254" stroke-miterlimit="10"/>
<path d="M174.131 94.9631C174.131 94.9631 211.536 89.5092 216.218 117.901" stroke="#232323" stroke-width="5" stroke-miterlimit="10"/>
<path d="M286.73 94.9631C286.73 94.9631 249.325 89.5092 244.643 117.901" stroke="#232323" stroke-width="5" stroke-miterlimit="10"/>
<path d="M252.793 44.7608C252.793 44.7608 287.358 70.3243 318.795 2.80711C318.795 2.80711 243.876 -3.8442 252.793 44.7608Z" fill="#00583D" stroke="#232323" stroke-width="4" stroke-miterlimit="10"/>
<path d="M252.792 44.7607C252.792 44.7607 287.743 14.2948 304.47 13.9648L252.792 44.7607Z" fill="#00583D"/>
<path d="M252.792 44.7607C252.792 44.7607 287.743 14.2948 304.47 13.9648" stroke="#232323" stroke-width="4" stroke-miterlimit="10"/>
<path d="M273.814 28.47C273.814 28.47 272.702 17.9862 282.608 10.8164L273.814 28.47Z" fill="#00583D"/>
<path d="M273.814 28.47C273.814 28.47 272.702 17.9862 282.608 10.8164" stroke="#232323" stroke-width="4" stroke-miterlimit="10"/>
<path d="M265.317 34.6596C265.317 34.6596 271.549 40.5991 290.169 33.0898L265.317 34.6596Z" fill="#00583D"/>
<path d="M265.317 34.6596C265.317 34.6596 271.549 40.5991 290.169 33.0898" stroke="#232323" stroke-width="4" stroke-miterlimit="10"/>
<path opacity="0.2" d="M314.092 9.02559C315.065 7.96114 315.91 7.0072 316.617 6.19217C301.904 36.0555 286.927 45.8521 275.601 48.173C269.707 49.3808 264.756 48.5754 261.281 47.4698C259.543 46.9169 258.175 46.2892 257.244 45.8016C257.145 45.7497 257.05 45.6994 256.961 45.6509C273.687 42.5622 289.065 32.1398 300.326 22.4178C306.112 17.4224 310.825 12.5998 314.092 9.02559Z" fill="#232323" stroke="#232323"/>
<path d="M7.21973 162.129L8.90622 167.074" stroke="#232323" stroke-width="4" stroke-miterlimit="10"/>
<path d="M12.4854 160.248L14.3838 165.255" stroke="#232323" stroke-width="4" stroke-miterlimit="10"/>
<path d="M453.46 162.441L451.773 167.387" stroke="#232323" stroke-width="4" stroke-miterlimit="10"/>
<path d="M448.188 160.555L446.289 165.566" stroke="#232323" stroke-width="4" stroke-miterlimit="10"/>
</svg>
