<svg width="832" height="650" viewBox="0 0 832 650" fill="none" xmlns="http://www.w3.org/2000/svg">
<g clip-path="url(#clip0_1094_10999)">
<path opacity="0.2" d="M355.411 315.377L350.697 324.22C350.697 324.22 368.796 346.642 362.978 361.283L377.993 331.624C377.993 331.624 357.785 318.471 355.411 315.377Z" fill="#232323"/>
<path opacity="0.2" d="M416.825 347.635L409.01 364.111C409.01 364.111 424.074 391.592 418.322 405.947L444.99 352.019C444.99 352.019 419.172 350.667 416.825 347.635Z" fill="#232323"/>
<path d="M253.925 2.72266L251.443 11.4075" stroke="#232323" stroke-width="2" stroke-miterlimit="10"/>
<path d="M260.125 5.20312L258.885 12.6473" stroke="#232323" stroke-width="2" stroke-miterlimit="10"/>
<path d="M526.875 72.2215C526.875 72.2215 556.317 112.353 613.724 48.1497C613.724 48.1529 533.458 15.2565 526.875 72.2215Z" fill="#00583D" stroke="#232323" stroke-width="2" stroke-miterlimit="10"/>
<path d="M526.875 72.2018C526.875 72.2018 575.421 50.35 593.873 55.6653L526.875 72.2018Z" fill="#00583D"/>
<path d="M526.875 72.2018C526.875 72.2018 575.421 50.35 593.873 55.6653" stroke="#232323" stroke-width="2" stroke-miterlimit="10"/>
<path d="M555.412 61.0353C555.412 61.0353 557.798 49.3593 571.541 44.9062L555.412 61.0353Z" fill="#00583D"/>
<path d="M555.412 61.0353C555.412 61.0353 557.798 49.3593 571.541 44.9062" stroke="#232323" stroke-width="2" stroke-miterlimit="10"/>
<path d="M544.244 64.7559C544.244 64.7559 549.211 73.9974 572.78 71.8866L544.244 64.7559Z" fill="#00583D"/>
<path d="M544.244 64.7559C544.244 64.7559 549.211 73.9974 572.78 71.8866" stroke="#232323" stroke-width="2" stroke-miterlimit="10"/>
<path opacity="0.2" d="M530.598 74.0609C530.598 74.0609 558.523 110.225 613.724 48.6289C613.724 48.632 569.697 79.5547 530.598 74.0609Z" fill="#232323"/>
<path opacity="0.2" d="M484.799 330.454C467.097 336.369 419.606 340.385 371.789 324.972C371.789 324.972 497.15 413.199 587.67 266.99C587.654 266.99 550.486 308.507 484.799 330.454Z" fill="#232323"/>
<path opacity="0.2" d="M600.705 219.844C600.705 219.844 596.221 250.912 591.393 257.065C591.393 257.065 621.866 256.6 643.502 238.544C643.502 238.544 613.888 249.305 605.479 220.119L600.705 219.844Z" fill="#232323"/>
<path d="M532.96 488.416C499.074 448.348 340.771 277.913 177 379.45C232.881 563.608 464.517 539.854 516.48 532.07C517.496 531.928 518.453 531.509 519.245 530.858C520.038 530.208 520.635 529.352 520.971 528.384C521.307 527.416 521.368 526.375 521.149 525.375C520.929 524.374 520.437 523.454 519.727 522.715L499.03 500.586L529.213 497.594C530.238 497.509 531.219 497.142 532.048 496.535C532.877 495.927 533.521 495.103 533.909 494.152C534.297 493.202 534.413 492.163 534.246 491.15C534.078 490.138 533.633 489.191 532.96 488.416Z" fill="#00583D" stroke="#232323" stroke-width="2" stroke-miterlimit="10"/>
<mask id="mask0_1094_10999" style="mask-type:luminance" maskUnits="userSpaceOnUse" x="180" y="350" width="351" height="184">
<path d="M528.812 486.515C495.654 447.929 340.76 283.841 180.516 381.594C235.194 558.903 461.843 536.026 512.685 528.533C513.679 528.397 514.616 527.993 515.392 527.368C516.168 526.742 516.753 525.917 517.082 524.986C517.411 524.054 517.471 523.051 517.257 522.088C517.042 521.125 516.561 520.238 515.866 519.527L495.611 498.22L525.146 495.341C526.147 495.258 527.104 494.904 527.913 494.32C528.722 493.735 529.351 492.943 529.73 492.03C530.109 491.117 530.224 490.119 530.062 489.145C529.9 488.172 529.468 487.262 528.812 486.515Z" fill="white"/>
</mask>
<g mask="url(#mask0_1094_10999)">
<path d="M292.17 503.801C292.17 503.801 261.003 502.828 259.362 472.125L262.772 466.764C262.772 466.764 279.031 454.958 289.272 457.821C289.272 457.821 297.864 458.714 292.17 503.801ZM303.72 502.699C304.624 502.606 305.519 502.445 306.398 502.217C308.651 501.654 312.659 501.166 314.867 500.923C315.709 500.83 316.557 500.773 317.405 500.761C328.619 500.588 331.297 493.522 331.297 493.522C336.918 479.646 311.704 462.143 311.704 462.143C305.446 457.755 302.619 469.687 301.466 477.52C301.074 480.45 300.979 483.412 301.182 486.361C301.579 493.57 296.76 502.01 296.76 502.01C299.246 502.888 301.942 502.864 303.72 502.699ZM315.09 523.021C316.138 524.27 317.082 525.602 317.911 527.001C319.304 529.345 321.102 531.433 323.224 533.171C323.638 533.514 324.171 533.688 324.712 533.655C325.254 533.623 325.761 533.387 326.13 532.997C330.589 528.205 336.219 512.376 337.869 507.539C338.106 506.86 338.097 506.122 337.844 505.448C337.59 504.775 337.108 504.208 336.479 503.843C333.572 502.193 328.32 503.283 324.889 504.29C323.268 504.794 321.727 505.522 320.314 506.452C318.027 507.899 315.245 507.929 315.245 507.929C303.104 507.668 301.911 510.325 301.911 510.325C304.967 511.199 311.704 518.942 315.09 523.021ZM316.615 543.268C318.969 538.475 306.788 520.849 306.788 520.849C302.103 512.286 294.308 513.02 294.308 513.02C294.918 514.838 290.733 521.011 290.733 521.011C284.228 527.301 287.778 534.878 287.778 534.878L316.615 543.268ZM290.251 511.029C290.251 511.029 268.106 498.35 257.575 501.588C257.575 501.588 250.463 506.06 253.647 513.643L259.945 526.774L271.855 530.239C271.855 530.239 289.187 517.761 290.251 511.029ZM391.447 518.402C393.344 518.265 404.622 526.594 404.622 526.594C407.602 520.948 404.927 507.156 404.07 503.187C404.006 502.891 403.828 502.631 403.572 502.46C403.317 502.29 403.005 502.223 402.701 502.274C390.529 504.34 390.144 511.795 390.144 511.795L391.447 518.402ZM402.945 528.011C402.945 528.011 394.64 521.475 392.27 522.718L393.231 527.81C393.231 527.81 397.556 530.607 402.945 528.011ZM405.159 528.391C405.159 528.391 398.159 532.949 397.839 536.996C397.839 536.996 399.236 538.493 402.414 538.745L410.344 539.392C410.344 539.392 409.499 529.739 405.159 528.391ZM407.138 526.594C407.138 526.594 425.84 519.669 427.185 517.609C427.185 517.609 429.036 514.176 425.785 510.361C425.785 510.361 416.681 502.987 413.799 502.675C413.799 502.675 409.874 501.384 409.529 505.131C409.532 505.128 408.861 524.719 407.138 526.6V526.594ZM413.802 532.635C415.91 537.224 424.751 540.572 424.751 540.572C430.653 534.204 431.177 526.196 431.074 522.602C431.066 522.335 430.998 522.074 430.875 521.836C430.751 521.599 430.576 521.391 430.36 521.228C430.145 521.066 429.896 520.952 429.631 520.896C429.365 520.84 429.09 520.842 428.826 520.903C424.696 521.802 420.466 525.258 420.466 525.258C419.109 526.326 417.527 527.082 415.834 527.472C414.141 527.862 412.381 527.875 410.682 527.51C411.875 527.6 413.802 532.635 413.802 532.635ZM507.781 556.425C504.634 547.571 491.885 536.981 486.716 532.958C486.072 532.456 485.262 532.203 484.44 532.248C483.619 532.293 482.843 532.634 482.26 533.204C473.83 541.488 476.041 554.664 476.041 554.664C500.614 556.683 507.781 556.425 507.781 556.425ZM515.592 548.979L510.026 519.286C508.844 518.643 507.527 518.276 506.177 518.212C504.827 518.148 503.48 518.389 502.24 518.918C498.836 520.283 496.497 523.374 495.835 526.926C494.99 531.503 496.686 535.597 498.54 538.502C499.865 540.561 501.577 542.353 503.585 543.783C506.982 546.209 514.522 552.981 514.522 552.981C515.458 551.962 515.592 548.988 515.592 548.988V548.979ZM514.006 454.505C511.286 451.253 504.643 450.534 501.197 450.384C499.864 450.325 498.534 450.563 497.308 451.079C496.246 451.523 495.372 452.313 494.835 453.316C487.597 467.001 500.517 476.405 500.517 476.405C517.642 457.587 514.006 454.514 514.006 454.514V454.505ZM506.138 479.49C506.579 479.731 507.04 479.937 507.516 480.104C508.982 480.707 510.413 481.389 511.801 482.147C512.216 482.366 512.622 482.602 513.021 482.86C518.206 486.268 521.698 483.875 521.698 483.875C528.737 479.284 522.866 463.452 522.866 463.452C521.424 459.504 516.284 464.075 513.235 467.291C512.111 468.508 511.113 469.832 510.255 471.242C508.12 474.659 503.188 477.013 503.188 477.013C503.98 478.039 504.986 478.886 506.138 479.499V479.49ZM504.777 492.33C504.852 493.227 504.852 494.129 504.777 495.026C504.659 496.529 504.806 498.041 505.213 499.494C505.292 499.78 505.48 500.026 505.737 500.179C505.995 500.333 506.304 500.382 506.598 500.318C510.179 499.518 517.852 494.028 520.164 492.345C520.491 492.108 520.724 491.768 520.825 491.382C520.926 490.996 520.889 490.587 520.719 490.225C519.926 488.568 517.175 487.433 515.287 486.828C514.384 486.555 513.445 486.409 512.5 486.394C511.509 486.327 510.55 486.018 509.712 485.495C504.256 481.584 502.859 482.446 502.859 482.446C503.966 483.773 504.546 489.401 504.777 492.33ZM488.128 491.537L487.936 492.756C487.805 493.579 487.851 494.42 488.071 495.225C488.29 496.03 488.679 496.782 489.211 497.431C490.276 498.734 491.703 499.705 493.319 500.228L495.899 501.064C496.398 501.226 496.926 501.283 497.449 501.231C497.972 501.18 498.478 501.021 498.934 500.766C499.391 500.51 499.788 500.164 500.099 499.748C500.41 499.332 500.63 498.857 500.742 498.353C501.636 494.385 501.691 488.769 501.691 488.769C502.301 483.402 498.516 481.311 498.516 481.311C498.211 482.33 494.307 483.851 494.307 483.851C493.013 484.499 491.83 485.343 490.803 486.352C489.374 487.752 488.437 489.563 488.128 491.522V491.537ZM497.302 479.134C497.302 479.134 491.275 466.459 485.423 464.665C485.423 464.665 480.732 464.494 479.744 468.948L478.545 474.668C478.1 476.796 478.298 479.005 479.116 481.024C479.324 481.54 479.697 481.976 480.178 482.268C480.66 482.559 481.224 482.69 481.787 482.641C485.902 482.27 495.234 481.248 497.302 479.119V479.134ZM450.925 414.141C450.62 405.38 440.556 395.937 435.039 391.396C432.913 389.642 430.411 388.385 427.719 387.718C425.39 387.13 422.926 387.35 420.744 388.341C391.16 401.978 400.395 433.567 400.395 433.567C452.969 423.743 450.925 414.135 450.925 414.135V414.141ZM405.726 445.676C406.15 446.621 406.648 447.532 407.215 448.401C408.648 450.639 410.615 454.799 411.67 457.102C412.073 457.98 412.439 458.878 412.753 459.798C416.925 471.865 425.794 472.254 425.794 472.254C443.35 473.41 454.033 439.937 454.033 439.937C456.735 431.617 442.349 432.791 433.163 434.319C429.736 434.934 426.38 435.882 423.144 437.149C415.214 440.144 404.03 437.916 404.03 437.916C403.927 440.902 404.909 443.81 405.726 445.67V445.676ZM386.963 465.174C385.933 466.75 384.776 468.243 383.502 469.637C381.369 471.975 379.665 474.658 378.466 477.567C378.228 478.137 378.221 478.774 378.448 479.348C378.675 479.922 379.119 480.388 379.686 480.649C386.637 483.776 406.385 484.244 412.39 484.321C413.237 484.338 414.064 484.066 414.73 483.554C415.397 483.041 415.863 482.317 416.05 481.506C416.87 477.777 413.784 472.485 411.445 469.142C410.303 467.564 408.939 466.152 407.394 464.949C404.955 462.987 403.942 459.995 403.942 459.995C399.928 446.772 396.519 446.428 396.519 446.428C396.631 450.037 390.343 460.064 386.963 465.174ZM360.46 443.175L358.569 444.954C357.293 446.154 356.286 447.601 355.611 449.205C354.937 450.808 354.611 452.532 354.653 454.266C354.735 457.743 355.842 461.122 357.84 463.994L361.039 468.579C361.656 469.466 362.455 470.217 363.385 470.781C364.316 471.346 365.356 471.713 366.44 471.858C367.524 472.003 368.626 471.923 369.677 471.624C370.727 471.324 371.701 470.811 372.537 470.119C379.131 464.662 386.469 455.443 386.469 455.443C394.399 447.338 390.821 439.171 390.821 439.171C388.991 440.467 380.595 438.137 380.595 438.137C377.619 437.604 374.576 437.531 371.577 437.922C367.395 438.458 363.5 440.3 360.466 443.175H360.46ZM391.602 434.061C391.602 434.061 397.967 405.608 390.602 395.377C390.602 395.377 383.066 389.27 375.691 395.403L366.346 403.376C362.869 406.34 360.351 410.238 359.103 414.59C358.787 415.702 358.844 416.884 359.264 417.963C359.684 419.041 360.445 419.959 361.436 420.58C368.698 425.112 385.472 435.019 391.608 434.061H391.602ZM343.881 365.893C348.52 360.053 347.217 348.572 346.144 342.69C345.735 340.419 344.807 338.268 343.429 336.4C342.245 334.779 340.526 333.609 338.565 333.088C311.854 326.166 300.392 351.574 300.392 351.574C339.907 373.207 343.887 365.893 343.887 365.893H343.881ZM297.175 362.26C296.927 363.098 296.746 363.955 296.635 364.821C296.33 367.034 295.305 370.778 294.72 372.833C294.494 373.617 294.235 374.39 293.936 375.151C289.971 385.193 295.509 390.171 295.509 390.171C306.248 400.27 331.66 384.262 331.66 384.262C338.007 380.308 328.033 373.408 321.235 369.505C318.674 368.08 315.976 366.908 313.181 366.004C306.382 363.71 300.371 356.321 300.371 356.321C298.642 358.211 297.675 360.619 297.175 362.26ZM274.249 364.914C272.71 365.385 271.135 365.735 269.54 365.962C266.865 366.341 264.278 367.173 261.894 368.421C261.424 368.663 261.066 369.073 260.896 369.566C260.725 370.06 260.755 370.599 260.979 371.071C263.757 376.801 276.295 387.625 280.147 390.866C280.687 391.326 281.372 391.59 282.086 391.612C282.8 391.635 283.501 391.414 284.069 390.989C286.659 389.009 287.583 383.932 287.912 380.521C288.043 378.893 287.94 377.254 287.607 375.654C287.11 373.084 288.104 370.601 288.104 370.601C292.807 359.894 290.785 357.854 290.785 357.854C288.867 360.247 279.254 363.398 274.249 364.914ZM269.216 336.538L267.008 336.685C265.518 336.783 264.066 337.185 262.743 337.865C261.42 338.545 260.256 339.489 259.326 340.635C257.461 342.933 256.313 345.711 256.02 348.635L255.556 353.308C255.466 354.211 255.569 355.123 255.86 355.985C256.151 356.847 256.623 357.639 257.246 358.31C257.868 358.981 258.627 359.517 259.473 359.882C260.32 360.247 261.235 360.434 262.159 360.43C269.445 360.403 279.296 358.333 279.296 358.333C288.919 357.309 291.105 350.103 291.105 350.103C289.205 349.974 285.045 343.99 285.045 343.99C283.412 342.058 281.48 340.39 279.321 339.045C276.313 337.169 272.771 336.29 269.216 336.538ZM294.436 347.219C294.436 347.219 314.26 332.171 315.151 321.611C315.151 321.611 313.626 313.638 305.47 313.686L295.006 313.874C291.116 313.943 287.33 315.129 284.118 317.286C283.297 317.837 282.678 318.633 282.354 319.557C282.03 320.481 282.017 321.482 282.319 322.413C284.53 329.215 289.928 344.571 294.436 347.219ZM188.568 428.071C204.595 428.325 228.967 414.731 238.416 409.061C239.595 408.355 240.469 407.248 240.872 405.95C241.274 404.652 241.178 403.255 240.599 402.023C232.191 384.184 209.765 379.979 209.765 379.979C192.32 416.836 188.568 428.071 188.568 428.071ZM195.995 444.469L246.852 453.047C251.036 449.381 252.091 444.99 251.954 441.213C251.735 435.157 248.126 429.745 242.804 426.672C235.951 422.716 228.4 422.97 222.675 424.159C218.607 425.014 214.742 426.626 211.29 428.906C205.413 432.755 190.182 440.515 190.182 440.515C191.298 442.54 195.995 444.469 195.995 444.469Z" fill="#FFDA28" stroke="#232323" stroke-width="2" stroke-miterlimit="10"/>
</g>
<mask id="mask1_1094_10999" style="mask-type:luminance" maskUnits="userSpaceOnUse" x="177" y="348" width="357" height="191">
<path d="M531.939 489.269C498.15 449.238 340.301 278.96 177 380.404C232.72 564.392 463.692 540.66 515.506 532.884C516.519 532.742 517.474 532.323 518.264 531.673C519.054 531.023 519.649 530.167 519.984 529.201C520.319 528.234 520.38 527.193 520.162 526.194C519.943 525.195 519.452 524.275 518.744 523.537L498.106 501.428L528.203 498.439C529.225 498.354 530.203 497.988 531.029 497.381C531.856 496.774 532.498 495.95 532.885 495C533.272 494.051 533.388 493.013 533.221 492.001C533.054 490.989 532.61 490.044 531.939 489.269Z" fill="white"/>
</mask>
<g mask="url(#mask1_1094_10999)">
<path opacity="0.35" d="M167.611 363.282C167.611 363.282 280.956 550.066 435.691 509.347C435.691 509.347 479.1 502.308 531.458 459.486V353.414L559.141 435.937L518.403 533.398L406.947 544.544L321.889 521.08L246.217 488.23L175.824 410.211L167.611 363.282Z" fill="#232323"/>
</g>
<path d="M656.06 67.1285L647.849 48.4362C647.656 47.9979 647.379 47.6019 647.032 47.2709C646.686 46.9398 646.277 46.6801 645.83 46.5066C645.383 46.3332 644.907 46.2494 644.427 46.26C643.948 46.2706 643.475 46.3755 643.037 46.5685C642.151 46.9587 641.456 47.684 641.106 48.5851C640.755 49.4863 640.777 50.4896 641.166 51.3747C640.974 50.9359 640.696 50.5393 640.35 50.2075C640.004 49.8758 639.595 49.6154 639.148 49.4413C638.701 49.2671 638.224 49.1826 637.744 49.1926C637.265 49.2025 636.792 49.3067 636.352 49.4992C635.913 49.6918 635.516 49.9689 635.183 50.3147C634.851 50.6605 634.59 51.0682 634.416 51.5147C634.242 51.9611 634.157 52.4375 634.167 52.9166C634.177 53.3957 634.281 53.8681 634.474 54.3069C634.083 53.4223 633.357 52.7287 632.455 52.3785C631.552 52.0283 630.548 52.0502 629.661 52.4392C628.776 52.8294 628.081 53.5547 627.73 54.4558C627.38 55.357 627.402 56.3603 627.791 57.2454L633.816 70.9603C633.425 70.0755 632.698 69.3818 631.795 69.0317C630.892 68.6815 629.887 68.7034 629.001 69.0926C628.115 69.4827 627.42 70.208 627.07 71.1092C626.719 72.0104 626.741 73.0137 627.13 73.8988L631.688 84.2768L631.65 84.3733C674.977 208.607 618.792 219.259 601.496 219.726C608.603 155.603 573.131 91.8408 510.454 65.8055C434.361 34.189 347.012 70.1634 315.353 146.153C314.332 148.601 313.383 151.062 312.504 153.536C238.717 127.535 268.953 24.4024 268.953 24.4024L269.66 21.8406C269.897 20.9849 269.783 20.0705 269.344 19.2985C268.906 18.5264 268.178 17.9601 267.321 17.724C266.464 17.4879 265.548 17.6013 264.775 18.0394C264.002 18.4776 263.435 19.2044 263.199 20.0601L261.992 24.418L266.827 6.79658C267.042 5.9483 266.915 5.04965 266.475 4.29325C266.034 3.53685 265.315 2.98286 264.47 2.75001C263.625 2.51715 262.723 2.62395 261.956 3.04753C261.19 3.47111 260.62 4.17776 260.368 5.01604C260.485 4.59235 260.518 4.14978 260.464 3.71359C260.409 3.27741 260.27 2.85618 260.052 2.47392C259.835 2.09165 259.545 1.75582 259.197 1.48567C258.85 1.21552 258.453 1.01631 258.029 0.8994C257.605 0.78249 257.162 0.750199 256.725 0.80433C256.288 0.858461 255.866 0.997965 255.483 1.2149C255.101 1.43183 254.764 1.72193 254.494 2.06863C254.223 2.41534 254.024 2.81185 253.907 3.23554C254.143 2.38027 254.029 1.46631 253.591 0.69463C253.153 -0.0770453 252.425 -0.643252 251.569 -0.879543C250.713 -1.11544 249.797 -1.00203 249.025 -0.564237C248.252 -0.126448 247.685 0.599876 247.448 1.45504L241.086 24.4896H241.027C207.784 145.567 304.543 188.938 304.543 188.938C302.26 212.635 305.681 236.533 314.523 258.642C323.364 280.75 337.368 300.428 355.369 316.036L316.699 398.226C311.712 395.505 307.704 394.045 304.586 393.31C301.437 392.589 298.137 392.947 295.216 394.327C292.295 395.706 289.924 398.027 288.484 400.915C287.758 402.356 287.282 403.909 287.078 405.509C286.717 408.31 287.253 411.154 288.609 413.632C289.964 416.111 292.07 418.097 294.624 419.308L321.097 431.735C325.57 433.836 330.981 431.735 333.185 427.065L341.321 409.783L377.893 332.088C389.95 339.096 402.923 344.396 416.441 347.839L378.949 427.455C373.962 424.737 369.951 423.274 366.834 422.539C363.685 421.819 360.385 422.177 357.465 423.557C354.545 424.936 352.174 427.256 350.734 430.144C350.007 431.584 349.531 433.138 349.328 434.738C348.967 437.539 349.503 440.382 350.858 442.86C352.212 445.339 354.317 447.326 356.872 448.537L383.348 460.964C387.821 463.065 393.232 460.964 395.435 456.294L403.568 439.012L444.441 352.181C506.012 355.758 565.856 320.696 590.886 260.616C591.37 259.458 591.836 258.298 592.285 257.136C664.394 256.65 675.619 180.01 675.619 180.01C681.551 129.776 667.162 89.5498 656.06 67.1285Z" fill="#FFA800"/>
<path d="M486.183 181.503C488.738 180.735 491.471 180.798 493.988 181.683C497.767 182.965 500.53 186.334 500.8 190.308C500.941 193.183 500.408 196.05 499.245 198.683C498.082 201.315 496.321 203.64 494.101 205.471C488.706 209.823 477.409 215.633 459.003 210.198C459.003 210.198 434.228 203.325 425.69 188.742C425.69 188.742 417.186 175.642 424.175 166.803C426.26 164.159 429.501 162.571 432.858 162.792C436.033 163.003 440.256 164.547 444.332 169.939C446.367 172.659 448.896 174.971 451.787 176.755C457.9 180.489 468.59 185.048 481.913 182.638C483.358 182.348 484.784 181.969 486.183 181.503Z" fill="#FFDA28" stroke="#232323" stroke-width="2" stroke-miterlimit="10"/>
<path d="M447.126 181.844C447.126 181.844 458.417 188.059 467.815 190.036C470.574 190.632 473.441 190.577 476.174 189.876C479.028 189.124 483.453 188.228 485.434 189.272C485.434 189.272 489.166 191.065 489.62 194.557C489.62 194.557 490.463 199.716 483.87 202.23C483.87 202.23 471.267 205.701 461.642 202.028C461.642 202.028 451.163 198.744 443.112 194.747C438.012 192.215 433.932 188.212 431.724 183.477C430.007 179.797 429.015 175.532 432.082 173.407C432.082 173.407 435.502 170.552 439.414 176.296C439.414 176.284 441.408 178.958 447.126 181.844Z" fill="#232323"/>
<path d="M440.025 192.082C440.025 192.082 446.732 186.606 456.151 189.858C456.151 189.858 464.279 192.142 466.889 194.798C466.889 194.798 471.422 198.808 471.017 203.715C471.017 203.715 453.27 200.794 440.025 192.082Z" fill="#E34935"/>
<path d="M427.621 108.182C427.621 108.182 465.919 118.113 459.056 147.884" stroke="#232323" stroke-width="2" stroke-miterlimit="10"/>
<path d="M538.044 154.751C538.044 154.751 503.419 133.241 487.176 160.29" stroke="#232323" stroke-width="2" stroke-miterlimit="10"/>
<path d="M654.877 67.1285L646.69 48.4362C646.498 47.9979 646.221 47.6019 645.875 47.2709C645.53 46.9398 645.123 46.6801 644.677 46.5066C644.231 46.3332 643.756 46.2494 643.278 46.26C642.8 46.2706 642.329 46.3755 641.891 46.5685C641.008 46.9587 640.315 47.684 639.965 48.5851C639.616 49.4863 639.638 50.4896 640.026 51.3747C639.834 50.9359 639.557 50.5393 639.212 50.2075C638.867 49.8758 638.459 49.6154 638.014 49.4413C637.568 49.2671 637.092 49.1826 636.614 49.1926C636.135 49.2025 635.663 49.3067 635.225 49.4992C634.787 49.6918 634.391 49.9689 634.06 50.3147C633.729 50.6605 633.469 51.0682 633.295 51.5147C633.121 51.9611 633.036 52.4375 633.046 52.9166C633.056 53.3957 633.16 53.8681 633.353 54.3069C632.963 53.4223 632.239 52.7287 631.339 52.3785C630.439 52.0283 629.437 52.0502 628.553 52.4392C627.67 52.8294 626.977 53.5547 626.628 54.4558C626.278 55.357 626.3 56.3603 626.688 57.2454L632.697 70.9603C632.307 70.0755 631.582 69.3818 630.681 69.0317C629.781 68.6815 628.779 68.7034 627.894 69.0926C627.011 69.4827 626.318 70.208 625.969 71.1092C625.619 72.0104 625.641 73.0137 626.029 73.8988L630.574 84.2768L630.536 84.3733C673.742 208.607 617.715 219.259 600.467 219.726C607.554 155.603 572.181 91.8408 509.68 65.8055C433.8 34.189 346.696 70.1634 315.125 146.153C314.108 148.601 313.161 151.062 312.284 153.536C238.704 127.535 268.855 24.4024 268.855 24.4024L269.56 21.8406C269.796 20.9849 269.683 20.0705 269.245 19.2985C268.808 18.5264 268.082 17.9601 267.228 17.724C266.373 17.4879 265.46 17.6013 264.689 18.0394C263.918 18.4776 263.353 19.2044 263.117 20.0601L261.914 24.418L266.735 6.79658C266.949 5.9483 266.823 5.04965 266.384 4.29325C265.945 3.53685 265.227 2.98286 264.385 2.75001C263.543 2.51715 262.643 2.62395 261.878 3.04753C261.114 3.47111 260.545 4.17776 260.295 5.01604C260.411 4.59235 260.444 4.14978 260.39 3.71359C260.336 3.27741 260.196 2.85618 259.98 2.47392C259.763 2.09165 259.473 1.75582 259.127 1.48567C258.781 1.21552 258.385 1.01631 257.962 0.8994C257.539 0.78249 257.097 0.750199 256.661 0.80433C256.226 0.858461 255.805 0.997965 255.423 1.2149C255.042 1.43183 254.706 1.72193 254.437 2.06863C254.167 2.41534 253.968 2.81185 253.851 3.23554C254.087 2.38027 253.973 1.46631 253.536 0.69463C253.099 -0.0770453 252.374 -0.643252 251.52 -0.879543C250.666 -1.11544 249.753 -1.00203 248.983 -0.564237C248.212 -0.126448 247.647 0.599876 247.411 1.45504L241.067 24.4896H241.008C207.858 145.567 304.345 188.938 304.345 188.938C302.069 212.635 305.481 236.533 314.297 258.642C323.114 280.75 337.079 300.428 355.029 316.036L316.468 398.226C311.495 395.505 307.497 394.045 304.389 393.31C301.249 392.589 297.957 392.947 295.045 394.327C292.132 395.706 289.767 398.027 288.332 400.915C287.607 402.356 287.133 403.909 286.93 405.509C286.57 408.31 287.104 411.154 288.456 413.632C289.808 416.111 291.907 418.097 294.455 419.308L320.854 431.735C325.314 433.836 330.71 431.735 332.908 427.065L341.02 409.783L377.49 332.088C389.513 339.096 402.45 344.396 415.93 347.839L378.544 427.455C373.57 424.737 369.57 423.274 366.462 422.539C363.322 421.819 360.031 422.177 357.119 423.557C354.207 424.936 351.843 427.256 350.407 430.144C349.682 431.584 349.208 433.138 349.005 434.738C348.646 437.539 349.179 440.382 350.53 442.86C351.881 445.339 353.981 447.326 356.528 448.537L382.929 460.964C387.39 463.065 392.786 460.964 394.983 456.294L403.093 439.012L443.852 352.181C505.25 355.758 564.926 320.696 589.886 260.616C590.369 259.458 590.834 258.298 591.282 257.136C663.189 256.65 674.382 180.01 674.382 180.01C680.297 129.776 665.949 89.5498 654.877 67.1285Z" stroke="#232323" stroke-width="2" stroke-miterlimit="10"/>
<path d="M453.056 351.357C535.625 351.357 602.56 284.699 602.56 202.473C602.56 120.247 535.625 53.5898 453.056 53.5898C370.488 53.5898 303.553 120.247 303.553 202.473C303.553 284.699 370.488 351.357 453.056 351.357Z" stroke="#232323" stroke-width="2" stroke-miterlimit="10"/>
</g>
<defs>
<clipPath id="clip0_1094_10999">
<rect width="832" height="650" fill="white"/>
</clipPath>
</defs>
</svg>
