<svg width="832" height="650" viewBox="0 0 832 650" fill="none" xmlns="http://www.w3.org/2000/svg">
<g clip-path="url(#clip0_1094_11000)">
<path d="M163.038 401.897C170.99 395.517 173.65 385.625 168.979 379.802C164.308 373.98 154.076 374.432 146.124 380.812C138.173 387.191 135.513 397.083 140.184 402.906C144.854 408.728 155.087 408.277 163.038 401.897Z" fill="#232323"/>
<path d="M200.299 368.346C208.206 361.98 210.839 352.125 206.178 346.335C201.517 340.545 191.329 341.012 183.421 347.378C175.514 353.744 172.882 363.598 177.542 369.388C182.203 375.179 192.391 374.712 200.299 368.346Z" fill="#232323"/>
<path d="M142.98 385.219L111.669 346.386L167.821 301.238L202.302 344.003L194.637 350.167L169.151 318.554L128.723 351.06L154.207 382.669L142.98 385.219Z" fill="#232323"/>
<path d="M159.49 190.367C165.881 186.774 168.916 180.043 166.268 175.333C163.621 170.623 156.293 169.718 149.901 173.312C143.51 176.905 140.475 183.636 143.122 188.346C145.77 193.056 153.098 193.96 159.49 190.367Z" fill="#232323"/>
<path d="M149.146 144.878L143.055 148.303L159.834 178.149L165.926 174.725L149.146 144.878Z" fill="#232323"/>
<path d="M143.057 148.303L147.852 156.83L167.952 145.529L163.158 137.002L143.057 148.303Z" fill="#232323"/>
<path d="M445.664 13.9942L424.455 36.1359C423.514 34.2841 422.266 32.6088 420.764 31.1802C415.126 25.7796 407.296 24.8027 403.277 28.9989C399.257 33.1951 400.57 40.9752 406.208 46.3758C411.846 51.7763 419.673 52.751 423.693 48.5548C424.063 48.1677 424.394 47.7441 424.679 47.2907L424.796 47.4029L441.596 29.8646C442.481 28.94 443.1 29.5736 442.845 30.8286C442.358 33.1359 442.113 34.479 441.851 36.5567C441.334 40.7161 441.486 42.3651 443.993 43.782L444.029 43.8167C444.398 44.0229 444.807 44.1492 445.23 44.1877C445.653 44.2262 446.081 44.176 446.486 44.0403C446.892 43.9046 447.266 43.6864 447.585 43.3995C447.904 43.1126 448.161 42.7632 448.34 42.3738C450.159 38.4533 450.961 33.2967 451.298 28.8776C451.512 26.1174 451.118 23.354 450.145 20.7822C449.171 18.2104 447.642 15.8932 445.664 13.9942Z" fill="#232323"/>
<path d="M255.443 135.322C263.911 138.32 272.557 135.724 274.753 129.524C276.948 123.323 271.863 115.866 263.394 112.868C254.926 109.87 246.281 112.466 244.085 118.666C241.889 124.867 246.974 132.324 255.443 135.322Z" fill="#232323"/>
<path d="M307.347 153.697C315.816 156.695 324.461 154.099 326.657 147.899C328.853 141.698 323.767 134.241 315.299 131.243C306.83 128.245 298.185 130.841 295.989 137.041C293.793 143.242 298.878 150.699 307.347 153.697Z" fill="#232323"/>
<path d="M267.523 118.671L282.538 75.952L344.455 98.0172L327.915 145.059L319.465 142.049L331.69 107.279L287.114 91.3907L274.889 126.16L267.523 118.671Z" fill="#232323"/>
<path d="M337.071 115.943L277.562 94.875L275.567 100.51L335.076 121.577L337.071 115.943Z" fill="#232323"/>
<path d="M591.789 268.804L666.767 178.162C671.059 182.168 674.677 184.655 677.602 186.192C679.446 187.138 681.467 187.689 683.535 187.81C685.604 187.931 687.675 187.618 689.616 186.893C691.557 186.168 693.326 185.046 694.808 183.598C696.291 182.151 697.456 180.41 698.227 178.487C699.309 175.778 699.506 172.797 698.79 169.97C698.074 167.142 696.481 164.614 694.241 162.747L670.992 143.516C667.063 140.267 661.12 140.969 657.716 145.083L645.146 160.28L570.171 250.918L591.789 268.804Z" fill="#C37DD4" stroke="#232323" stroke-width="2" stroke-miterlimit="10"/>
<path d="M513.753 73.6215C512.644 72.421 511.316 71.4436 509.841 70.7421C504.317 68.0679 497.116 69.2678 492.01 73.4111L465.719 94.8374C461.276 98.4561 460.57 104.381 464.137 108.068L476.275 120.613C524.88 175.695 502.631 229.559 502.631 229.559L533.523 226.19C542.222 159.889 504.223 111.235 498.541 104.391L501.766 101.762C507.106 97.8424 510.658 94.4684 513.02 91.7033C517.816 86.1146 518.274 78.5665 513.753 73.6215Z" fill="#C37DD4" stroke="#232323" stroke-width="2" stroke-miterlimit="10"/>
<path d="M289.415 195.17L285.167 182.053C284.997 181.54 284.727 181.065 284.373 180.656C284.019 180.248 283.588 179.913 283.104 179.67C282.621 179.428 282.094 179.284 281.555 179.245C281.015 179.207 280.474 179.275 279.961 179.446C278.925 179.79 278.068 180.531 277.579 181.507C277.09 182.483 277.008 183.613 277.352 184.649L279.839 192.135L272.028 168.612C271.858 168.099 271.588 167.625 271.234 167.216C270.88 166.807 270.449 166.472 269.965 166.23C269.482 165.988 268.955 165.843 268.416 165.805C267.876 165.766 267.335 165.834 266.822 166.005C266.308 166.175 265.834 166.445 265.425 166.799C265.016 167.153 264.681 167.584 264.439 168.068C264.197 168.551 264.052 169.078 264.014 169.617C263.975 170.157 264.043 170.698 264.214 171.211C263.869 170.175 263.127 169.318 262.15 168.829C261.174 168.339 260.043 168.257 259.007 168.601C258.493 168.771 258.018 169.041 257.609 169.394C257.199 169.748 256.864 170.179 256.622 170.663C256.379 171.147 256.234 171.673 256.196 172.213C256.157 172.753 256.225 173.295 256.396 173.808C256.051 172.772 255.309 171.915 254.332 171.425C253.356 170.936 252.225 170.854 251.188 171.197C250.675 171.368 250.201 171.638 249.792 171.992C249.383 172.346 249.048 172.777 248.806 173.26C248.564 173.744 248.419 174.27 248.381 174.81C248.342 175.349 248.41 175.891 248.581 176.404L254.387 193.881L254.365 193.888C254.365 193.888 284.785 313.578 411.493 331.62L442.847 307.433C324.458 298.342 294.589 213.816 289.415 195.17Z" fill="#C37DD4" stroke="#232323" stroke-width="2" stroke-miterlimit="10"/>
<path d="M568.817 402.84L549.577 428.594C549.577 428.594 617.888 523.357 593.663 586.127C591.159 592.57 587.286 598.392 582.312 603.192L565.651 619.335C564.9 620.102 564.479 621.132 564.477 622.205C564.475 623.279 564.892 624.311 565.639 625.081C566.386 625.852 567.404 626.3 568.477 626.331C569.55 626.362 570.593 625.973 571.383 625.247C570.995 625.623 570.684 626.072 570.469 626.568C570.255 627.064 570.14 627.598 570.132 628.139C570.123 628.679 570.222 629.216 570.421 629.719C570.621 630.221 570.917 630.679 571.294 631.067C571.67 631.456 572.119 631.766 572.615 631.981C573.112 632.196 573.645 632.311 574.186 632.319C574.726 632.328 575.263 632.23 575.766 632.031C576.269 631.832 576.727 631.536 577.116 631.159C576.727 631.535 576.417 631.984 576.202 632.48C575.987 632.977 575.872 633.51 575.864 634.051C575.856 634.592 575.954 635.129 576.154 635.631C576.353 636.134 576.65 636.592 577.027 636.98C577.787 637.763 578.827 638.213 579.918 638.23C581.01 638.248 582.064 637.831 582.848 637.072L596.671 623.665L596.42 629.788C596.363 630.882 596.734 631.955 597.455 632.779C598.175 633.604 599.189 634.115 600.281 634.204C600.827 634.237 601.373 634.161 601.889 633.98C602.404 633.8 602.879 633.518 603.284 633.152C603.69 632.786 604.019 632.343 604.251 631.849C604.484 631.355 604.616 630.819 604.639 630.273L604.555 625.932C604.458 620.365 606.108 614.908 609.274 610.328C621.26 592.923 645.508 534.591 568.817 402.84Z" fill="#C37DD4" stroke="#232323" stroke-width="2" stroke-miterlimit="10"/>
<path opacity="0.15" d="M557.716 261.221C557.716 261.221 576.623 285.484 571.713 291.95C571.713 291.95 575.023 288.612 626.213 227.198C626.213 227.198 595.595 246.732 573.197 245.427C573.194 245.428 573.139 251.394 557.716 261.221Z" fill="#232323"/>
<path opacity="0.15" d="M564.563 450.396C564.563 450.396 577.283 421.906 575.201 414.045C575.201 414.045 598.161 455.546 609.49 488.641C609.49 488.641 595.061 471.517 578.153 476.137C578.157 476.149 575.062 465.366 564.563 450.396Z" fill="#232323"/>
<path d="M568.402 430.773L568.344 430.862C568.522 430.961 568.699 431.063 568.874 431.162C569.237 431.253 569.182 431.161 568.402 430.773Z" fill="#C37DD4" stroke="#232323" stroke-width="2" stroke-miterlimit="10"/>
<path d="M383.164 320.642C382.449 320.146 382.337 320.143 382.594 320.414C382.766 320.525 382.943 320.627 383.115 320.738L383.164 320.642Z" fill="#C37DD4" stroke="#232323" stroke-width="2" stroke-miterlimit="10"/>
<path d="M317.72 357.96C318.626 382.643 338.114 403.346 361.645 405.077C360.649 405.33 359.661 405.621 358.675 405.952C336.204 413.547 326.225 439.145 336.377 463.121C346.53 487.098 372.984 500.38 395.445 492.772C401.566 490.73 407.061 487.151 411.404 482.377C411.586 482.488 411.761 482.608 411.94 482.709L412.099 482.8L412.253 482.896C412.435 483.003 412.62 483.103 412.802 483.211C410.685 489.307 410.168 495.844 411.3 502.197C415.362 525.568 439.67 542.457 465.58 539.93C491.49 537.403 509.219 516.399 505.152 493.031C504.975 492.008 504.757 491.002 504.504 490.006C517.246 509.84 544.761 517.08 566.881 506.087C589.575 494.809 598.011 468.612 585.72 447.583C581.665 440.706 575.849 435.035 568.872 431.154C567.5 430.81 560.088 427.819 563.452 428.432C587.637 432.817 609.817 416.188 612.965 391.297C616.006 367.331 577.527 336.744 577.493 335.699C598.256 328.889 609.348 306.197 602.484 282.943C595.176 258.184 573.087 250.766 561.803 251.211C552.337 251.582 548.927 256.381 547.455 255.505C547.404 255.474 547.356 255.437 547.311 255.397C547.252 255.377 547.195 255.351 547.142 255.319C545.672 254.447 548.257 249.155 544.076 240.658C539.079 230.544 522.013 214.678 496.77 220.081C473.06 225.159 458.424 245.744 462.357 267.242C461.417 267.712 460.476 268.191 459.542 268.686C443.762 251.364 416.161 248.516 396.561 262.642C376.201 277.309 372.185 304.725 387.59 323.878C389.745 326.539 383.564 321.459 382.606 320.415C375.864 316.141 368.104 313.742 360.127 313.463C335.759 312.714 316.79 332.634 317.72 357.96Z" fill="#C37DD4" stroke="#232323" stroke-width="2" stroke-miterlimit="10"/>
<path d="M478.07 497.19L432.085 469.85L446.386 443.342L493.448 471.325L478.07 497.19Z" fill="#232323"/>
<path d="M415.268 457.661L427.889 432.343L383.341 405.858L368.924 430.107L415.268 457.661Z" fill="#232323"/>
<path d="M483.357 488.298L493.192 494.144L497.709 488.078L487.202 481.833L483.357 488.298Z" fill="#232323"/>
<path d="M373.248 422.834L363.413 416.988L366.582 410.121L377.092 416.365L373.248 422.834Z" fill="#232323"/>
<path d="M438.045 458.807L420.325 447.515L423.112 440.269L441.992 451.492L438.045 458.807Z" fill="#232323"/>
<path d="M451.279 479.076L485.278 471.574L478.294 466.144L444.16 473.568L451.279 479.076Z" fill="#F5F5F5"/>
<path d="M449.346 464.565L468.136 460.545L464.256 457.538L445.389 461.514L449.346 464.565Z" fill="#F5F5F5"/>
<path d="M387.232 427.64L406.027 423.622L402.144 420.615L383.275 424.588L387.232 427.64Z" fill="#F5F5F5"/>
<path d="M390.697 438.785L420.83 431.914L414.679 427.115L384.426 433.914L390.697 438.785Z" fill="#F5F5F5"/>
<path d="M472.776 420.485C472.776 420.485 457.555 399.981 421.599 406.422C421.599 406.422 411.748 409.209 407.245 403.985C405.68 402.16 405.419 399.587 406.334 397.36C407.859 393.646 412.059 387.73 423.51 385.675C423.51 385.675 441.93 380.157 461.902 389.349C461.902 389.349 480.742 398.116 489.491 410.018C491.163 412.291 492.303 414.951 492.381 417.768C492.454 420.499 491.668 423.828 488.213 426.188C488.211 426.182 480.687 431.112 472.776 420.485Z" fill="#FFDA28" stroke="#232323" stroke-width="2" stroke-miterlimit="10"/>
<path d="M483.048 418C483.048 418 465.057 383.571 417.871 399.16" stroke="#232323" stroke-width="2" stroke-miterlimit="10"/>
<path d="M568.847 431.506L568.789 431.595C568.968 431.693 569.141 431.796 569.32 431.895C569.679 431.986 569.624 431.894 568.847 431.506Z" fill="#C37DD4" stroke="#232323" stroke-width="2" stroke-miterlimit="10"/>
<path d="M383.608 321.373C382.896 320.876 382.78 320.874 383.041 321.144C383.213 321.255 383.387 321.358 383.559 321.469L383.608 321.373Z" fill="#C37DD4" stroke="#232323" stroke-width="2" stroke-miterlimit="10"/>
<path opacity="0.2" d="M576.413 335.471C600.838 373.169 597.611 390.403 597.611 390.403C594.498 414.587 563.242 421.056 563.242 421.056C546.501 424.269 561.298 433.527 561.298 433.527C593.469 462.217 563.913 486.444 563.913 486.444C542.195 506.255 513.29 487.724 502.889 479.79C502.51 479.5 502.06 479.319 501.586 479.267C501.112 479.214 500.633 479.292 500.201 479.493C499.768 479.693 499.398 480.007 499.131 480.402C498.864 480.797 498.71 481.257 498.686 481.733C498.212 490.957 497.635 499.725 494.737 505.245C484.353 524.978 459.617 531.772 440.249 520.723C421.575 510.073 415.561 489.75 413.181 484.143C411.119 490.184 410.624 496.65 411.743 502.935C415.801 526.306 440.112 543.194 466.019 540.668C491.926 538.142 509.659 517.138 505.594 493.768C505.418 492.745 505.199 491.739 504.946 490.743C517.689 510.577 545.2 517.819 567.32 506.825C590.016 495.543 598.45 469.35 586.162 448.32C582.104 441.45 576.291 435.784 569.319 431.904C567.947 431.56 560.534 428.569 563.898 429.182C588.083 433.567 608.193 416.665 613.408 392.048C618.412 368.403 576.413 335.471 576.413 335.471Z" fill="#232323"/>
<path d="M123.035 505.673V476H258.417V505.673H247.942V485.248H133.913V505.673H123.035Z" fill="#FF00A2" stroke="#232323" stroke-width="2" stroke-miterlimit="10"/>
<path d="M170.262 500.572H179.2C180.166 500.572 181.093 500.902 181.777 501.489C182.46 502.076 182.844 502.873 182.844 503.703V505.672H166.617V503.703C166.617 502.873 167.001 502.076 167.685 501.489C168.368 500.902 169.295 500.572 170.262 500.572Z" fill="#232323" stroke="#232323" stroke-width="2" stroke-miterlimit="10"/>
<path d="M202.301 500.572H211.607C212.586 500.572 213.526 500.907 214.219 501.503C214.911 502.099 215.3 502.908 215.3 503.751V505.672H198.609V503.751C198.609 502.908 198.998 502.1 199.691 501.504C200.383 500.908 201.322 500.573 202.301 500.572Z" fill="#232323" stroke="#232323" stroke-width="2" stroke-miterlimit="10"/>
<path d="M283.918 505.672H98V577.999H283.918V505.672Z" fill="#FF00A2" stroke="#232323" stroke-width="2" stroke-miterlimit="10"/>
<path d="M136.021 565.482C148.568 565.482 158.739 556.867 158.739 546.241C158.739 535.614 148.568 527 136.021 527C123.474 527 113.303 535.614 113.303 546.241C113.303 556.867 123.474 565.482 136.021 565.482Z" fill="#232323" stroke="#232323" stroke-width="2" stroke-miterlimit="10"/>
<path d="M245.2 565.482C257.875 565.482 268.15 556.867 268.15 546.241C268.15 535.614 257.875 527 245.2 527C232.525 527 222.25 535.614 222.25 546.241C222.25 556.867 232.525 565.482 245.2 565.482Z" fill="#232323" stroke="#232323" stroke-width="2" stroke-miterlimit="10"/>
<path d="M215.299 545.082H166.617V565.482H215.299V545.082Z" fill="#39D1F9" stroke="#232323" stroke-width="2" stroke-miterlimit="10"/>
<path d="M215.299 519.119H166.617V529.319H215.299V519.119Z" fill="#FFDA28" stroke="#232323" stroke-width="2" stroke-miterlimit="10"/>
<path d="M193.514 541.836C195.562 541.836 197.223 539.864 197.223 537.432C197.223 534.999 195.562 533.027 193.514 533.027C191.465 533.027 189.805 534.999 189.805 537.432C189.805 539.864 191.465 541.836 193.514 541.836Z" fill="#232323" stroke="#232323" stroke-width="2" stroke-miterlimit="10"/>
<path d="M206.03 541.836C208.335 541.836 210.203 539.864 210.203 537.432C210.203 534.999 208.335 533.027 206.03 533.027C203.726 533.027 201.857 534.999 201.857 537.432C201.857 539.864 203.726 541.836 206.03 541.836Z" fill="#232323" stroke="#232323" stroke-width="2" stroke-miterlimit="10"/>
<path d="M136.479 554.818C142.113 554.818 146.679 551.081 146.679 546.472C146.679 541.863 142.113 538.127 136.479 538.127C130.846 538.127 126.279 541.863 126.279 546.472C126.279 551.081 130.846 554.818 136.479 554.818Z" fill="#F5F5F5" stroke="#232323" stroke-width="2" stroke-miterlimit="10"/>
<path d="M245.438 554.818C251.072 554.818 255.638 551.081 255.638 546.472C255.638 541.863 251.072 538.127 245.438 538.127C239.805 538.127 235.238 541.863 235.238 546.472C235.238 551.081 239.805 554.818 245.438 554.818Z" fill="#F5F5F5" stroke="#232323" stroke-width="2" stroke-miterlimit="10"/>
</g>
<defs>
<clipPath id="clip0_1094_11000">
<rect width="832" height="650" fill="white"/>
</clipPath>
</defs>
</svg>
