<svg width="486" height="461" viewBox="0 0 486 461" fill="none" xmlns="http://www.w3.org/2000/svg">
<path d="M481.974 132.254C480.374 131.684 478.614 132.518 478.044 134.12C478.614 132.518 477.78 130.756 476.18 130.186C474.58 129.616 472.819 130.451 472.25 132.052C472.819 130.451 471.986 128.689 470.385 128.119C468.785 127.549 467.025 128.383 466.455 129.984L462.214 141.877C462.784 140.276 461.95 138.514 460.35 137.944C458.75 137.374 456.989 138.208 456.42 139.809L453.064 149.215C442.475 172.156 437.317 181.862 429.177 190.615C412.777 208.249 395.979 192.294 395.979 192.294C384.665 183.111 373.542 170.539 363.517 157.429C365.842 156.62 368.115 155.61 370.311 154.392C391.65 142.572 397.792 115.692 384.033 94.3521C370.621 73.5563 343.254 65.7055 322.117 76.2614C322.842 75.5359 323.546 74.7793 324.224 73.9865C339.676 55.9372 335.171 28.7778 314.163 13.3248C293.155 -2.12823 263.592 -0.0191195 248.14 18.0301C243.749 23.1604 240.969 29.0317 239.721 35.157C239.508 35.157 239.301 35.1466 239.089 35.1466C239.027 35.1466 238.965 35.1466 238.908 35.1518C238.846 35.1518 238.783 35.1466 238.726 35.1466C238.514 35.1466 238.307 35.157 238.095 35.157C236.847 29.0317 234.071 23.1656 229.675 18.0301C214.223 -0.0191195 184.66 -2.12305 163.652 13.3248C142.644 28.7778 138.139 55.932 153.591 73.9865C154.264 74.7741 154.968 75.5307 155.698 76.2614C134.561 65.7003 107.194 73.5563 93.7822 94.3521C80.0237 115.692 86.1651 142.572 107.505 154.392C111.818 156.781 116.416 158.361 121.129 159.206C111.466 171.669 100.84 183.526 90.0384 192.294C90.0384 192.294 73.235 208.249 56.8407 190.615C48.7005 181.862 43.543 172.151 32.9535 149.215L29.5979 139.809C29.0283 138.208 27.2677 137.374 25.6676 137.944C24.0676 138.514 23.2339 140.276 23.8035 141.877L19.5625 129.984C18.9929 128.383 17.2323 127.549 15.6322 128.119C14.0321 128.689 13.1984 130.451 13.768 132.052C13.1984 130.451 11.4379 129.616 9.83778 130.186C8.2377 130.756 7.40395 132.518 7.97356 134.12C7.40395 132.518 5.64337 131.684 4.04329 132.254C2.44321 132.824 1.60953 134.586 2.17914 136.187L9.68759 157.237C22.1102 194.242 37.8469 212.369 51.1964 221.148C64.753 230.061 82.2192 230.118 96.0814 221.697C101.13 218.629 106.008 214.867 110.674 210.659C111.243 212.722 111.963 214.784 112.849 216.821C122.496 239.021 147.708 250.701 170.151 243.861C170.705 244.768 171.264 245.659 171.834 246.55C157.449 263.05 159.51 288.277 177.318 304.792C181.258 308.445 185.365 311.125 189.481 313.026V428.572C183.614 428.224 179.234 428.613 175.997 429.292C169.447 430.67 164.46 436.495 164.294 443.491C164.253 445.299 164.527 446.942 165.004 448.409C166.894 454.228 172.264 458.016 178.125 458.016H208.335C213.441 458.016 217.578 453.679 217.578 448.326V428.566V315.768C222.058 314.705 225.853 313.052 228.562 311.29C236.52 306.124 237.002 300.242 238.711 300.242C238.768 300.242 238.83 300.247 238.892 300.263C238.954 300.247 239.016 300.242 239.073 300.242C240.787 300.242 241.269 306.124 249.223 311.29C251.993 313.089 255.908 314.783 260.527 315.84V428.566C254.66 428.219 250.279 428.608 247.043 429.287C240.492 430.665 235.506 436.49 235.34 443.486C235.298 445.294 235.573 446.937 236.049 448.404C237.939 454.223 243.309 458.011 249.171 458.011H279.381C284.486 458.011 288.624 453.674 288.624 448.321V428.561V312.871C292.632 310.979 296.63 308.342 300.467 304.782C318.275 288.266 320.335 263.04 305.95 246.54C306.52 245.654 307.084 244.757 307.633 243.851C330.076 250.691 355.289 239.01 364.936 216.81C366.774 212.577 367.918 208.26 368.421 203.974C375.09 210.887 382.304 217.075 389.905 221.687C403.772 230.108 421.233 230.056 434.79 221.137C448.14 212.359 463.871 194.232 476.299 157.227L483.807 136.177C484.403 134.586 483.569 132.824 481.974 132.254Z" fill="#C37DD4" stroke="#232323" stroke-width="4" stroke-miterlimit="10"/>
<path d="M178.914 62.9805H232.457L233.71 93.1196H178.914V62.9805Z" fill="#232323" stroke="#232323" stroke-width="1.3343" stroke-miterlimit="10"/>
<path d="M253.164 64.8613L255.256 93.1193H307.121V64.8613H253.164Z" fill="#232323" stroke="#232323" stroke-width="1.3343" stroke-miterlimit="10"/>
<path d="M178.917 73.3398H167.468L166.681 80.8746H178.917V73.3398Z" fill="#232323" stroke="#232323" stroke-width="1.3343" stroke-miterlimit="10"/>
<path d="M307.122 73.3398H318.571L319.358 80.8746H307.122V73.3398Z" fill="#232323" stroke="#232323" stroke-width="1.3343" stroke-miterlimit="10"/>
<path d="M232.981 75.5371L254 76.1901L255.305 83.8544H233.323L232.981 75.5371Z" fill="#232323" stroke="#232323" stroke-width="1.3343" stroke-miterlimit="10"/>
<path d="M211.227 64.8613L185.817 88.7197L194.6 89.8235L220.17 65.9599L211.227 64.8613Z" fill="#F5F5F5" stroke="#232323" stroke-width="1.3343" stroke-miterlimit="10"/>
<path d="M220.316 76.3613L206.211 89.4409L211.084 90.0421L225.282 76.9624L220.316 76.3613Z" fill="#F5F5F5" stroke="#232323" stroke-width="1.3343" stroke-miterlimit="10"/>
<path d="M292.63 76.3613L278.52 89.4409L283.397 90.0421L297.591 76.9624L292.63 76.3613Z" fill="#F5F5F5" stroke="#232323" stroke-width="1.3343" stroke-miterlimit="10"/>
<path d="M283.953 68.5371L261.547 89.877L269.294 90.8616L291.84 69.5217L283.953 68.5371Z" fill="#F5F5F5" stroke="#232323" stroke-width="1.3343" stroke-miterlimit="10"/>
<path d="M222.7 126.307C222.7 126.307 246.282 136.168 273.913 112.216C273.913 112.216 280.96 104.775 287.516 106.972C289.8 107.739 291.337 109.822 291.69 112.206C292.275 116.186 291.69 123.425 282.892 131.059C282.892 131.059 269.868 145.237 247.985 147.543C247.985 147.543 227.293 149.642 213.679 143.869C211.08 142.77 208.739 141.065 207.232 138.676C205.772 136.365 204.742 133.095 206.513 129.291C206.508 129.297 210.469 121.197 222.7 126.307Z" fill="#FFDA28" stroke="#232323" stroke-width="2" stroke-miterlimit="10"/>
<path d="M215.136 133.701C215.136 133.701 248.225 154.129 280.837 116.559" stroke="#232323" stroke-width="2" stroke-miterlimit="10"/>
</svg>
