<svg width="503" height="483" viewBox="0 0 503 483" fill="none" xmlns="http://www.w3.org/2000/svg">
<path d="M498.315 164.36C496.773 163.811 495.076 164.615 494.527 166.158C495.076 164.615 494.273 162.917 492.731 162.367C491.189 161.818 489.492 162.622 488.943 164.165C489.492 162.622 488.689 160.924 487.147 160.375C485.605 159.826 483.908 160.63 483.359 162.173L479.273 173.633C479.822 172.09 479.018 170.392 477.476 169.843C475.934 169.294 474.238 170.098 473.689 171.641L470.455 180.704C460.251 202.812 455.281 212.165 447.436 220.599C431.633 237.593 415.445 222.217 415.445 222.217C403.509 212.534 391.803 198.937 381.453 185.029C380.171 180.6 378.594 176.29 376.713 172.15C357.646 130.128 302.921 33.7489 279.458 41.9686C279.458 41.9686 276.149 42.3631 269.308 51.2769C265.81 55.8312 261.169 58.9223 256.094 59.8062C265.67 42.6078 281.034 16.5655 281.034 16.5655L265.086 3.68164C259.163 10.8976 248.909 42.9673 244.208 58.343C240.965 56.8349 238.026 54.403 235.625 51.2769C229.518 43.3169 226.224 42.1484 225.59 41.9935C225.491 41.9686 225.396 41.9436 225.301 41.9087C201.743 34.3232 147.068 130.233 128.046 172.15C127.043 174.357 126.125 176.61 125.291 178.907C113.914 194.862 100.526 211.111 86.8381 222.217C86.8381 222.217 70.6455 237.593 54.8471 220.599C47.0028 212.165 42.0328 202.807 31.8282 180.704L28.5947 171.641C28.0458 170.098 26.3492 169.294 24.8073 169.843C23.2653 170.392 22.462 172.09 23.0109 173.633L18.924 162.173C18.3751 160.63 16.6786 159.826 15.1367 160.375C13.5948 160.924 12.7913 162.622 13.3402 164.165C12.7913 162.622 11.0947 161.818 9.55276 162.367C8.01084 162.917 7.20753 164.615 7.75643 166.158C7.20753 164.615 5.51088 163.811 3.96896 164.36C2.42705 164.909 1.62373 166.607 2.17263 168.15L9.40815 188.435C21.3792 224.1 36.5438 241.563 49.4081 250.022C62.4719 258.612 79.3032 258.667 92.6614 250.552C102.502 244.574 111.673 235.87 119.797 226.397C124.498 288.204 165.436 315.745 200.615 328.01V451.944C194.962 451.609 190.74 451.984 187.621 452.638C181.309 453.966 176.504 459.579 176.344 466.321C176.304 468.064 176.569 469.647 177.028 471.06C178.849 476.668 184.024 480.318 189.672 480.318H218.784C223.704 480.318 227.691 476.139 227.691 470.98V451.939V335.101C240.94 337.523 250.491 337.822 252.222 337.857V337.862C252.222 337.862 252.277 337.862 252.367 337.862C252.457 337.862 252.512 337.862 252.512 337.862V337.857C253.874 337.827 260.066 337.637 269.088 336.384V451.944C263.435 451.609 259.213 451.984 256.094 452.638C249.782 453.966 244.977 459.579 244.817 466.321C244.777 468.064 245.041 469.647 245.501 471.06C247.322 476.668 252.497 480.318 258.145 480.318H287.257C292.177 480.318 296.164 476.139 296.164 470.98V451.939V330.566C332.347 319.9 378.654 293.633 384.722 228.974C392.277 237.438 400.665 245.119 409.607 250.552C422.97 258.667 439.797 258.612 452.861 250.022C465.725 241.563 480.889 224.095 492.86 188.43L500.096 168.145C500.66 166.607 499.857 164.914 498.315 164.36Z" fill="#71DC48" stroke="#232323" stroke-width="4" stroke-miterlimit="10"/>
<path d="M218.255 145.29C218.255 145.29 245.206 165.749 288.539 144.221C288.539 144.221 300.036 137.025 307.701 142.014C310.375 143.751 311.653 146.932 311.313 150.109C310.75 155.402 307.596 164.485 293.793 171.347C293.793 171.347 272.411 185.194 243.609 180.895C243.609 180.895 216.398 176.72 200.869 164.81C197.905 162.538 195.47 159.577 194.327 156.021C193.22 152.57 192.99 148.041 196.513 143.756C196.518 143.756 204.278 134.688 218.255 145.29Z" fill="#FFDA28" stroke="#232323" stroke-width="2" stroke-miterlimit="10"/>
<path d="M206.108 152.255C206.108 152.255 241.737 189.403 295.969 152.08" stroke="#232323" stroke-width="1.6437" stroke-miterlimit="10"/>
<path d="M245.554 95.291C245.554 107.99 234.156 118.282 220.1 118.282C206.043 118.282 194.646 107.99 194.646 95.291" stroke="#232323" stroke-width="5" stroke-miterlimit="10"/>
<path d="M310.341 95.291C310.341 107.99 298.944 118.282 284.887 118.282C270.83 118.282 259.433 107.99 259.433 95.291" stroke="#232323" stroke-width="5" stroke-miterlimit="10"/>
<path d="M7.51172 165.664L9.29337 170.903" stroke="#232323" stroke-width="4" stroke-miterlimit="10"/>
<path d="M13.0908 163.666L15.102 168.975" stroke="#232323" stroke-width="4" stroke-miterlimit="10"/>
</svg>
