<svg width="832" height="650" viewBox="0 0 832 650" fill="none" xmlns="http://www.w3.org/2000/svg">
<g clip-path="url(#clip0_1094_11001)">
<path d="M686.068 500.774L658.247 517.689L577.465 393.658L605.282 376.742L686.068 500.774Z" fill="#8E3E00" stroke="#232323" stroke-width="2" stroke-miterlimit="10"/>
<path opacity="0.15" d="M573.932 386.854C573.932 386.854 597.09 359.787 592.081 355.049C592.081 355.049 632.098 413.924 650.967 443.832C650.967 443.832 629.985 430.112 609.98 437.966C609.98 437.966 584.577 402.766 573.932 386.854Z" fill="#232323"/>
<path d="M577.25 517.69L550.281 507.078L654.686 308.074L681.658 318.686L577.25 517.69Z" fill="#8E3E00" stroke="#232323" stroke-width="2" stroke-miterlimit="10"/>
<path opacity="0.15" d="M628.261 353.192C628.261 353.192 663.205 358.5 664.797 351.789C664.797 351.789 638.673 401.962 622.244 433.272C622.244 433.272 625.262 409.484 608.434 396.103C608.449 396.088 619.822 370.383 628.261 353.192Z" fill="#232323"/>
<path d="M741.004 106.021C741.004 106.021 721.463 336.778 639.391 374.151C639.391 374.151 566.483 414.455 473.969 391.715L681.163 111.884L741.004 106.021Z" fill="#232323" stroke="#232323" stroke-width="2" stroke-miterlimit="10"/>
<path d="M569.037 106.021H740.997C740.997 106.021 636.454 362.426 589.555 380.99C589.555 380.99 556.226 394.752 500.256 394.838C487.905 394.907 475.636 392.837 463.992 388.72C443.938 381.552 421.994 366.41 441.048 336.046L569.037 106.021Z" fill="#D5CA9A" stroke="#232323" stroke-width="2" stroke-miterlimit="10"/>
<path opacity="0.15" d="M647.764 223.346C647.764 223.346 660.556 193.284 657.462 184.344C657.462 184.344 709.487 227.59 718.043 326.894C718.043 326.894 707.02 293.271 677.709 290.151C677.709 290.151 661.261 239.817 647.764 223.346Z" fill="#232323"/>
<path opacity="0.2" d="M739.439 105.283C739.439 105.283 712.112 159.605 650.879 190.222L681.654 239.037C681.654 239.037 735.256 130.222 739.439 105.283Z" fill="#232323"/>
<path d="M310.547 293.973L307.907 309.817C307.686 311.069 306.977 312.183 305.936 312.914C304.895 313.644 303.607 313.932 302.354 313.714C301.101 313.494 299.986 312.785 299.256 311.744C298.525 310.703 298.238 309.414 298.457 308.161L300.045 299.107L295.058 327.547C294.949 328.168 294.72 328.761 294.382 329.293C294.044 329.825 293.605 330.285 293.089 330.646C292.573 331.008 291.991 331.265 291.376 331.402C290.761 331.539 290.125 331.553 289.505 331.444C288.252 331.224 287.138 330.516 286.407 329.474C285.676 328.433 285.389 327.144 285.608 325.891C285.388 327.144 284.68 328.258 283.638 328.989C282.597 329.72 281.308 330.007 280.055 329.788C278.802 329.568 277.688 328.86 276.957 327.818C276.226 326.777 275.939 325.488 276.158 324.235C276.049 324.855 275.819 325.448 275.481 325.979C275.143 326.511 274.704 326.97 274.188 327.332C273.673 327.693 273.091 327.95 272.476 328.086C271.861 328.223 271.226 328.237 270.605 328.128C269.352 327.908 268.238 327.2 267.507 326.158C266.777 325.117 266.489 323.828 266.709 322.575L270.417 301.45H270.39C270.39 301.45 284.989 158.345 427.921 115.887L468.184 138.4C333.302 169.092 313.324 271.603 310.547 293.973Z" fill="#71DC48" stroke="#232323" stroke-width="2" stroke-miterlimit="10"/>
<path d="M276.145 324.232L279.03 312.885" stroke="#232323" stroke-width="2" stroke-miterlimit="10"/>
<path d="M285.559 326.035L288.233 315.514" stroke="#232323" stroke-width="2" stroke-miterlimit="10"/>
<path d="M349.878 497.285C349.947 499.185 350.38 501.053 351.153 502.789C354.031 509.334 361.319 513.729 368.985 513.88L408.486 514.752C415.159 514.899 420.263 510.183 419.886 504.215L418.603 483.924C417.136 398.355 477.565 367.414 477.565 367.414L447.631 347.043C389.816 399.256 386.745 471.098 386.606 481.468L381.762 481.358C374.066 480.8 368.366 481.109 364.179 481.777C355.699 483.135 349.606 489.484 349.878 497.285Z" fill="#71DC48" stroke="#232323" stroke-width="2" stroke-miterlimit="10"/>
<path d="M439.611 497.285C439.678 499.184 440.11 501.053 440.882 502.789C443.76 509.334 451.067 513.729 458.718 513.88L498.214 514.752C504.891 514.899 509.996 510.183 509.618 504.215L508.336 483.924C506.864 398.355 567.298 367.414 567.298 367.414L537.364 347.043C479.545 399.256 476.474 471.098 476.338 481.468L471.491 481.358C463.795 480.8 458.095 481.109 453.912 481.777C445.446 483.135 439.335 489.484 439.611 497.285Z" fill="#71DC48" stroke="#232323" stroke-width="2" stroke-miterlimit="10"/>
<path opacity="0.15" d="M504.713 384.793C504.713 384.793 545.919 396.11 547.511 389.403C547.511 389.403 533.176 384.355 512.575 441.669C512.575 441.669 507.018 422.181 491.072 414.572C491.072 414.572 496.278 401.984 504.713 384.793Z" fill="#232323"/>
<path opacity="0.15" d="M429.555 365.996C429.555 365.996 466.581 381.301 468.173 374.59C468.173 374.59 466.027 368.58 440.808 402.72C440.808 402.72 436.919 391.992 420.098 378.615C420.098 378.622 417.163 383.047 429.555 365.996Z" fill="#232323"/>
<path d="M675.406 380.365L671.257 395.877C670.937 397.108 671.118 398.415 671.762 399.513C672.406 400.61 673.459 401.406 674.69 401.727C675.299 401.887 675.934 401.924 676.558 401.837C677.182 401.751 677.783 401.542 678.326 401.224C678.87 400.905 679.345 400.482 679.725 399.979C680.105 399.477 680.382 398.904 680.541 398.295L682.857 389.403L675.576 417.341C675.256 418.573 675.437 419.881 676.081 420.979C676.725 422.077 677.778 422.874 679.009 423.196C680.24 423.516 681.548 423.335 682.645 422.691C683.742 422.047 684.539 420.994 684.86 419.763C684.54 420.994 684.721 422.302 685.365 423.399C686.009 424.496 687.062 425.293 688.293 425.614C689.524 425.934 690.832 425.753 691.929 425.109C693.026 424.465 693.823 423.412 694.144 422.181C693.985 422.791 693.947 423.425 694.033 424.049C694.12 424.673 694.328 425.274 694.646 425.817C694.965 426.36 695.387 426.836 695.889 427.216C696.391 427.596 696.963 427.873 697.573 428.032C698.182 428.191 698.817 428.229 699.441 428.143C700.065 428.056 700.665 427.848 701.209 427.53C701.752 427.211 702.227 426.789 702.607 426.287C702.987 425.785 703.265 425.213 703.424 424.603L708.837 403.855H708.86C708.86 403.855 755.045 267.623 642.685 169.609L596.707 173.355C706.604 257.321 682.182 358.866 675.406 380.365Z" fill="#71DC48" stroke="#232323" stroke-width="2" stroke-miterlimit="10"/>
<path d="M694.119 422.181L696.209 410.664" stroke="#232323" stroke-width="2" stroke-miterlimit="10"/>
<path d="M684.82 419.914L686.759 409.23" stroke="#232323" stroke-width="2" stroke-miterlimit="10"/>
<path d="M673.245 277.496C676.218 261.507 675.926 245.083 672.389 229.21C659.91 174.201 618.108 45.3251 587.975 49.3766C587.975 49.3766 583.915 49.0334 573.523 58.0154C568.207 62.6064 561.885 65.1565 555.589 64.9679C571.297 46.7398 596.13 19.3561 596.13 19.3561L580.196 0C571.323 7.16751 551.149 43.0353 541.718 60.2826C538.063 57.4985 535.132 53.8756 533.173 49.7199C527.816 38.6857 524.161 36.4789 523.441 36.1394C523.331 36.0828 523.222 36.0262 523.116 35.9659C496.762 21.0763 407.617 122.395 374.484 167.882C364.971 181.062 358.219 196.028 354.634 211.883C321.215 358.221 474.249 395.017 482.42 396.873L482.593 396.907L482.767 396.945C491.002 398.469 646.122 425.132 673.245 277.496Z" fill="#71DC48" stroke="#232323" stroke-width="2" stroke-miterlimit="10"/>
<path d="M489.173 157.968C489.173 157.968 516.414 189.106 573.637 174.028C573.637 174.028 589.183 168.252 597.139 176.117C599.911 178.856 600.662 182.979 599.47 186.68C597.49 192.878 591.476 202.973 573.252 207.779C573.252 207.779 544.205 219.096 510.778 206.828C510.778 206.828 479.214 195.115 463.54 177.027C460.552 173.575 458.361 169.429 457.881 164.891C457.406 160.488 458.259 155.011 463.517 150.748C463.51 150.771 475.038 141.826 489.173 157.968Z" fill="#FFDA28" stroke="#232323" stroke-width="2" stroke-miterlimit="10"/>
<path d="M472.91 163.311C472.91 163.311 506.431 216.573 580.604 185.273" stroke="#232323" stroke-width="2" stroke-miterlimit="10"/>
<path d="M534.205 104.849C531.074 120.052 514.883 129.562 498.043 126.091C481.204 122.621 470.086 107.49 473.217 92.291" stroke="#232323" stroke-width="2" stroke-miterlimit="10"/>
<path d="M611.815 120.834C608.684 136.033 592.497 145.546 575.657 142.076C558.817 138.605 547.7 123.474 550.831 108.275" stroke="#232323" stroke-width="2" stroke-miterlimit="10"/>
<path opacity="0.15" d="M674.429 236.312C674.429 236.312 650.972 399.441 455.254 388.136C455.254 388.136 499.127 412.882 586.857 387.581C586.857 387.581 643.82 365.995 659.422 318.547C659.415 318.558 678.548 286.685 674.429 236.312Z" fill="#232323"/>
<path d="M555.578 64.9757C547.856 68.1294 541.703 60.2904 541.703 60.2904C541.703 60.2904 573.697 2.05999 580.181 0.0078125L596.116 19.3639L555.578 64.9757Z" fill="#71DC48" stroke="#232323" stroke-width="2" stroke-miterlimit="10"/>
<path d="M215.852 563.197L218.69 637.545C218.69 637.545 219.913 649.733 232.919 649.996C236.109 650.074 239.225 648.996 241.723 646.951C244.397 644.75 247.399 641.295 247.034 637.058L239.84 561.291L215.852 563.197Z" fill="#8E3E00" stroke="#232323" stroke-width="2" stroke-miterlimit="10"/>
<path d="M233.1 650.001C240.812 650.001 247.064 644.117 247.064 636.859C247.064 629.601 240.812 623.717 233.1 623.717C225.388 623.717 219.137 629.601 219.137 636.859C219.137 644.117 225.388 650.001 233.1 650.001Z" fill="#8E3E00" stroke="#232323" stroke-width="2" stroke-miterlimit="10"/>
<path d="M231.74 636.776C231.633 637.039 231.596 637.327 231.632 637.61C231.668 637.893 231.776 638.161 231.945 638.386C232.113 638.611 232.337 638.785 232.591 638.89C232.846 638.995 233.123 639.027 233.393 638.984C233.813 638.946 234.211 638.77 234.528 638.481C234.846 638.192 235.067 637.805 235.159 637.376C235.278 636.815 235.206 636.228 234.955 635.716C234.704 635.204 234.29 634.8 233.784 634.572C233.061 634.251 232.246 634.241 231.516 634.544C230.786 634.847 230.201 635.438 229.887 636.19C229.695 636.656 229.592 637.157 229.585 637.664C229.578 638.172 229.668 638.676 229.848 639.147C230.028 639.619 230.295 640.049 230.634 640.412C230.974 640.776 231.378 641.066 231.825 641.267C232.384 641.518 232.985 641.652 233.593 641.661C234.201 641.67 234.805 641.554 235.37 641.319C235.935 641.085 236.45 640.737 236.886 640.294C237.322 639.852 237.671 639.325 237.911 638.742C238.212 638.014 238.373 637.231 238.383 636.438C238.394 635.646 238.255 634.858 237.974 634.121C237.693 633.385 237.275 632.713 236.745 632.145C236.215 631.576 235.583 631.122 234.885 630.809C233.122 630.016 231.13 629.987 229.346 630.726C227.562 631.465 226.133 632.913 225.373 634.751C224.9 635.89 224.648 637.115 224.63 638.356C224.613 639.597 224.83 640.829 225.269 641.983C225.708 643.136 226.361 644.188 227.19 645.078C228.02 645.968 229.009 646.678 230.102 647.169C232.703 648.34 235.632 648.447 238.305 647.469C239.666 646.961 240.915 646.171 241.976 645.146C243.037 644.122 243.887 642.883 244.476 641.506C245.066 640.129 245.381 638.642 245.404 637.134C245.427 635.626 245.156 634.129 244.609 632.733C243.527 630.019 241.179 627.314 236.36 625.81C234.77 625.347 233.103 625.239 231.47 625.494C229.837 625.749 228.274 626.361 226.884 627.29C219.657 632.061 218.658 642.792 224.807 648.99C225.144 649.33 225.508 649.667 225.898 650.001" fill="#8E3E00"/>
<path d="M231.74 636.776C231.633 637.039 231.596 637.327 231.632 637.61C231.668 637.893 231.776 638.161 231.945 638.386C232.113 638.611 232.337 638.785 232.591 638.89C232.846 638.995 233.123 639.027 233.393 638.984C233.813 638.946 234.211 638.77 234.528 638.481C234.846 638.192 235.067 637.805 235.159 637.376C235.278 636.815 235.206 636.228 234.955 635.716C234.704 635.204 234.29 634.8 233.784 634.572C233.061 634.251 232.246 634.241 231.516 634.544C230.786 634.847 230.201 635.438 229.887 636.19C229.695 636.656 229.592 637.157 229.585 637.664C229.578 638.172 229.668 638.676 229.848 639.147C230.028 639.619 230.295 640.049 230.634 640.412C230.974 640.776 231.378 641.066 231.825 641.267C232.384 641.518 232.985 641.652 233.593 641.661C234.201 641.67 234.805 641.554 235.37 641.319C235.935 641.085 236.45 640.737 236.886 640.294C237.322 639.852 237.671 639.325 237.911 638.742C238.212 638.014 238.373 637.231 238.383 636.438C238.394 635.646 238.255 634.858 237.974 634.121C237.693 633.385 237.275 632.713 236.745 632.145C236.215 631.576 235.583 631.122 234.885 630.809C233.122 630.016 231.13 629.987 229.346 630.726C227.562 631.465 226.133 632.913 225.373 634.751C224.9 635.89 224.648 637.115 224.63 638.356C224.613 639.597 224.83 640.829 225.269 641.983C225.708 643.136 226.361 644.188 227.19 645.078C228.02 645.968 229.009 646.678 230.102 647.169C232.703 648.34 235.632 648.447 238.305 647.469C239.666 646.961 240.915 646.171 241.976 645.146C243.037 644.122 243.887 642.883 244.476 641.506C245.066 640.129 245.381 638.642 245.404 637.134C245.427 635.626 245.156 634.129 244.609 632.733C243.527 630.019 241.179 627.314 236.36 625.81C234.77 625.347 233.103 625.239 231.47 625.494C229.837 625.749 228.274 626.361 226.884 627.29C219.657 632.061 218.658 642.792 224.807 648.99C225.144 649.33 225.508 649.667 225.898 650.001" stroke="#232323" stroke-width="2" stroke-miterlimit="10"/>
<path opacity="0.2" d="M218.326 603.423L216.911 580.651L240.561 578.793L242.575 599.377C236.137 595.47 229.879 596.616 225.187 598.835C222.634 600.043 220.524 601.573 219.057 602.795C218.793 603.015 218.549 603.226 218.326 603.423Z" fill="#232323" stroke="#232323" stroke-width="2"/>
<path d="M247.904 544.863L146.035 607.356C146.035 607.356 136.003 614.373 142.442 625.972C144.012 628.825 146.555 631.048 149.628 632.252C152.921 633.532 157.468 634.492 160.996 632.118L261.85 565.085L247.904 544.863Z" fill="#8E3E00" stroke="#232323" stroke-width="2" stroke-miterlimit="10"/>
<path d="M161.501 632.662C168.044 628.94 170.115 620.235 166.126 613.221C162.137 606.206 153.599 603.537 147.055 607.26C140.512 610.982 138.441 619.687 142.43 626.701C146.419 633.716 154.957 636.385 161.501 632.662Z" fill="#8E3E00" stroke="#232323" stroke-width="2" stroke-miterlimit="10"/>
<path d="M154.444 618.92C154.167 618.952 153.904 619.054 153.682 619.215C153.459 619.376 153.286 619.591 153.18 619.838C153.074 620.084 153.039 620.353 153.078 620.617C153.117 620.881 153.229 621.13 153.402 621.339C153.646 621.678 153.996 621.935 154.402 622.071C154.808 622.207 155.249 622.216 155.66 622.096C156.197 621.937 156.658 621.604 156.966 621.155C157.273 620.706 157.408 620.169 157.346 619.635C157.255 618.876 156.854 618.181 156.229 617.703C155.605 617.224 154.808 617.001 154.012 617.082C153.52 617.134 153.042 617.278 152.608 617.507C152.173 617.735 151.79 618.043 151.48 618.413C151.17 618.783 150.94 619.207 150.802 619.663C150.664 620.118 150.621 620.594 150.676 621.065C150.744 621.654 150.933 622.224 151.231 622.743C151.53 623.262 151.933 623.72 152.417 624.09C152.9 624.46 153.456 624.736 154.051 624.901C154.647 625.066 155.27 625.117 155.886 625.052C157.441 624.887 158.864 624.138 159.842 622.971C160.82 621.804 161.272 620.313 161.1 618.827C160.994 617.907 160.698 617.017 160.232 616.206C159.765 615.395 159.135 614.681 158.379 614.103C157.623 613.524 156.755 613.094 155.824 612.837C154.894 612.58 153.92 612.5 152.957 612.602C151.754 612.729 150.589 613.081 149.528 613.638C148.467 614.196 147.532 614.947 146.775 615.85C146.019 616.753 145.456 617.789 145.119 618.9C144.782 620.011 144.678 621.175 144.812 622.324C145.124 625.067 146.507 627.597 148.684 629.409C149.801 630.327 151.102 631.02 152.507 631.445C153.912 631.869 155.393 632.018 156.859 631.881C158.326 631.744 159.749 631.324 161.041 630.648C162.334 629.971 163.469 629.051 164.379 627.944C166.139 625.776 167.251 622.54 166.098 617.764C165.692 616.205 164.945 614.745 163.907 613.48C162.868 612.216 161.561 611.176 160.072 610.429C152.378 606.516 142.759 610.622 140.592 618.689C140.474 619.133 140.369 619.597 140.285 620.08" fill="#8E3E00"/>
<path d="M154.444 618.92C154.167 618.952 153.904 619.054 153.682 619.215C153.459 619.376 153.286 619.591 153.18 619.838C153.074 620.084 153.039 620.353 153.078 620.617C153.117 620.881 153.229 621.13 153.402 621.339C153.646 621.678 153.996 621.935 154.402 622.071C154.808 622.207 155.249 622.216 155.66 622.096C156.197 621.937 156.658 621.604 156.966 621.155C157.273 620.706 157.408 620.169 157.346 619.635C157.255 618.876 156.854 618.181 156.229 617.703C155.605 617.224 154.808 617.001 154.012 617.082C153.52 617.134 153.042 617.278 152.608 617.507C152.173 617.735 151.79 618.043 151.48 618.413C151.17 618.783 150.94 619.207 150.802 619.663C150.664 620.118 150.621 620.594 150.676 621.065C150.744 621.654 150.933 622.224 151.231 622.743C151.53 623.262 151.933 623.72 152.417 624.09C152.9 624.46 153.456 624.736 154.051 624.901C154.647 625.066 155.27 625.117 155.886 625.052C157.441 624.887 158.864 624.138 159.842 622.971C160.82 621.804 161.272 620.313 161.1 618.827C160.994 617.907 160.698 617.017 160.232 616.206C159.765 615.395 159.135 614.681 158.379 614.103C157.623 613.524 156.755 613.094 155.824 612.837C154.894 612.58 153.92 612.5 152.957 612.602C151.754 612.729 150.589 613.081 149.528 613.638C148.467 614.196 147.532 614.947 146.775 615.85C146.019 616.753 145.456 617.789 145.119 618.9C144.782 620.011 144.678 621.175 144.812 622.324C145.124 625.067 146.507 627.597 148.684 629.409C149.801 630.327 151.102 631.02 152.507 631.445C153.912 631.869 155.393 632.018 156.859 631.881C158.326 631.744 159.749 631.324 161.041 630.648C162.334 629.971 163.469 629.051 164.379 627.944C166.139 625.776 167.251 622.54 166.098 617.764C165.692 616.205 164.945 614.745 163.907 613.48C162.868 612.216 161.561 611.176 160.072 610.429C152.378 606.516 142.759 610.622 140.592 618.689C140.474 619.133 140.369 619.597 140.285 620.08" stroke="#232323" stroke-width="2" stroke-miterlimit="10"/>
<path opacity="0.2" d="M188.834 580.71L223.206 560.97L237.411 581.176L205.238 600.49C205.573 592.615 201.17 587.547 196.612 584.468C194.154 582.807 191.63 581.705 189.728 581.019C189.412 580.905 189.113 580.802 188.834 580.71Z" fill="#232323" stroke="#232323" stroke-width="2"/>
<path d="M211.442 541.578L317.574 596.272C317.574 596.272 328.1 602.532 322.761 614.828C321.459 617.853 319.142 620.323 316.212 621.808C313.068 623.391 308.646 624.738 304.957 622.639L199.422 563.273L211.442 541.578Z" fill="#8E3E00" stroke="#232323" stroke-width="2" stroke-miterlimit="10"/>
<path d="M322.41 614.512C325.785 607.182 322.979 598.686 316.141 595.537C309.303 592.387 301.024 595.775 297.649 603.105C294.273 610.435 297.08 618.93 303.918 622.08C310.755 625.23 319.035 621.842 322.41 614.512Z" fill="#8E3E00" stroke="#232323" stroke-width="2" stroke-miterlimit="10"/>
<path d="M310.877 608.351C311.14 608.359 311.397 608.433 311.619 608.564C311.841 608.696 312.022 608.88 312.143 609.099C312.263 609.317 312.319 609.562 312.305 609.808C312.29 610.053 312.206 610.29 312.06 610.495C311.86 610.825 311.552 611.087 311.182 611.242C310.811 611.398 310.397 611.439 310 611.359C309.482 611.253 309.02 610.981 308.693 610.592C308.366 610.203 308.194 609.719 308.207 609.224C308.229 608.52 308.549 607.852 309.096 607.366C309.643 606.881 310.374 606.617 311.129 606.632C312.073 606.654 312.969 607.025 313.62 607.664C314.271 608.302 314.624 609.156 314.601 610.038C314.586 610.584 314.457 611.122 314.22 611.621C313.982 612.12 313.642 612.571 313.218 612.947C312.795 613.323 312.296 613.618 311.75 613.814C311.204 614.011 310.623 614.105 310.038 614.091C309.307 614.074 308.587 613.923 307.919 613.647C307.251 613.37 306.647 612.973 306.143 612.479C305.639 611.985 305.244 611.402 304.981 610.765C304.718 610.128 304.592 609.449 304.611 608.767C304.633 607.914 304.836 607.074 305.206 606.294C305.577 605.514 306.108 604.81 306.77 604.222C307.432 603.634 308.211 603.173 309.064 602.866C309.917 602.559 310.826 602.413 311.739 602.434C314.044 602.488 316.231 603.393 317.821 604.952C319.411 606.511 320.273 608.595 320.219 610.747C320.154 613.29 319.066 615.716 317.173 617.544C316.2 618.471 315.036 619.205 313.752 619.701C312.467 620.197 311.088 620.445 309.698 620.429C308.308 620.414 306.935 620.135 305.664 619.611C304.392 619.086 303.248 618.327 302.299 617.378C300.461 615.519 299.142 612.627 299.822 608.158C300.073 606.695 300.652 605.297 301.522 604.057C302.391 602.818 303.532 601.763 304.868 600.964C311.768 596.789 321.157 599.839 323.875 607.086C324.024 607.484 324.161 607.903 324.282 608.339" fill="#8E3E00"/>
<path d="M310.877 608.351C311.14 608.359 311.397 608.433 311.619 608.564C311.841 608.696 312.022 608.88 312.143 609.099C312.263 609.317 312.319 609.562 312.305 609.808C312.29 610.053 312.206 610.29 312.06 610.495C311.86 610.825 311.552 611.087 311.182 611.242C310.811 611.398 310.397 611.439 310 611.359C309.482 611.253 309.02 610.981 308.693 610.592C308.366 610.203 308.194 609.719 308.207 609.224C308.229 608.52 308.549 607.852 309.096 607.366C309.643 606.881 310.374 606.617 311.129 606.632C312.073 606.654 312.969 607.025 313.62 607.664C314.271 608.302 314.624 609.156 314.601 610.038C314.586 610.584 314.457 611.122 314.22 611.621C313.982 612.12 313.642 612.571 313.218 612.947C312.795 613.323 312.296 613.618 311.75 613.814C311.204 614.011 310.623 614.105 310.038 614.091C309.307 614.074 308.587 613.923 307.919 613.647C307.251 613.37 306.647 612.973 306.143 612.479C305.639 611.985 305.244 611.402 304.981 610.765C304.718 610.128 304.592 609.449 304.611 608.767C304.633 607.914 304.836 607.074 305.206 606.294C305.577 605.514 306.108 604.81 306.77 604.222C307.432 603.634 308.211 603.173 309.064 602.866C309.917 602.559 310.826 602.413 311.739 602.434C314.044 602.488 316.231 603.393 317.821 604.952C319.411 606.511 320.273 608.595 320.219 610.747C320.154 613.29 319.066 615.716 317.173 617.544C316.2 618.471 315.036 619.205 313.752 619.701C312.467 620.197 311.088 620.445 309.698 620.429C308.308 620.414 306.935 620.135 305.664 619.611C304.392 619.086 303.248 618.327 302.299 617.378C300.461 615.519 299.142 612.627 299.822 608.158C300.073 606.695 300.652 605.297 301.522 604.057C302.391 602.818 303.532 601.763 304.868 600.964C311.768 596.789 321.157 599.839 323.875 607.086C324.024 607.484 324.161 607.903 324.282 608.339" stroke="#232323" stroke-width="2" stroke-miterlimit="10"/>
<path opacity="0.2" d="M255.369 591.433C255.333 591.782 255.312 592.108 255.301 592.405L222.039 573.834L231.775 551.213L276.318 576.552C265.444 577.249 260.057 581.132 257.472 585.263C256.066 587.511 255.542 589.756 255.369 591.433Z" fill="#232323" stroke="#232323" stroke-width="2"/>
<path d="M236.938 541.578L354.569 560.118C354.569 560.118 366.494 562.748 365.248 576.083C364.952 579.356 363.523 582.421 361.209 584.746C358.721 587.23 354.951 589.906 350.796 589.058L232.275 565.901L236.938 541.578Z" fill="#8E3E00" stroke="#232323" stroke-width="2" stroke-miterlimit="10"/>
<path d="M365.33 576.161C366.242 568.143 360.918 560.953 353.438 560.102C345.958 559.251 339.155 565.061 338.243 573.079C337.331 581.098 342.655 588.288 350.135 589.139C357.615 589.99 364.418 584.18 365.33 576.161Z" fill="#8E3E00" stroke="#232323" stroke-width="2" stroke-miterlimit="10"/>
<path d="M351.937 573.775C352.203 573.698 352.485 573.693 352.754 573.76C353.022 573.828 353.268 573.966 353.466 574.159C353.663 574.353 353.805 574.596 353.877 574.863C353.95 575.13 353.949 575.412 353.876 575.679C353.793 576.097 353.577 576.478 353.261 576.766C352.946 577.054 352.546 577.233 352.121 577.278C351.567 577.335 351.01 577.198 350.547 576.89C350.083 576.581 349.741 576.121 349.58 575.589C349.354 574.828 349.438 574.01 349.814 573.311C350.19 572.612 350.827 572.09 351.586 571.859C352.058 571.715 352.553 571.665 353.044 571.713C353.535 571.76 354.011 571.904 354.446 572.136C354.881 572.368 355.266 572.684 355.578 573.065C355.891 573.446 356.125 573.885 356.267 574.356C356.445 574.944 356.506 575.561 356.445 576.173C356.385 576.784 356.204 577.377 355.914 577.918C355.623 578.46 355.229 578.939 354.753 579.328C354.278 579.717 353.73 580.009 353.141 580.187C352.405 580.409 351.633 580.484 350.868 580.408C350.103 580.332 349.36 580.106 348.683 579.743C348.005 579.38 347.406 578.888 346.919 578.293C346.433 577.699 346.068 577.015 345.846 576.28C345.568 575.361 345.474 574.397 345.569 573.442C345.664 572.488 345.947 571.561 346.401 570.715C346.854 569.869 347.471 569.121 348.214 568.514C348.958 567.906 349.814 567.451 350.734 567.174C353.055 566.473 355.56 566.723 357.697 567.867C359.835 569.011 361.43 570.956 362.131 573.275C362.964 576.011 362.733 578.961 361.486 581.536C360.841 582.846 359.937 584.012 358.828 584.963C357.72 585.915 356.43 586.632 355.036 587.072C353.642 587.512 352.174 587.666 350.719 587.524C349.264 587.381 347.853 586.946 346.571 586.244C344.081 584.865 341.747 582.214 340.851 577.228C340.584 575.581 340.67 573.897 341.101 572.286C341.533 570.674 342.301 569.172 343.355 567.878C348.775 561.153 359.226 561.323 364.491 568.172C364.781 568.548 365.064 568.95 365.341 569.378" fill="#8E3E00"/>
<path d="M351.937 573.775C352.203 573.698 352.485 573.693 352.754 573.76C353.022 573.828 353.268 573.966 353.466 574.159C353.663 574.353 353.805 574.596 353.877 574.863C353.95 575.13 353.949 575.412 353.876 575.679C353.793 576.097 353.577 576.478 353.261 576.766C352.946 577.054 352.546 577.233 352.121 577.278C351.567 577.335 351.01 577.198 350.547 576.89C350.083 576.581 349.741 576.121 349.58 575.589C349.354 574.828 349.438 574.01 349.814 573.311C350.19 572.612 350.827 572.09 351.586 571.859C352.058 571.715 352.553 571.665 353.044 571.713C353.535 571.76 354.011 571.904 354.446 572.136C354.881 572.368 355.266 572.684 355.578 573.065C355.891 573.446 356.125 573.885 356.267 574.356C356.445 574.944 356.506 575.561 356.445 576.173C356.385 576.784 356.204 577.377 355.914 577.918C355.623 578.46 355.229 578.939 354.753 579.328C354.278 579.717 353.73 580.009 353.141 580.187C352.405 580.409 351.633 580.484 350.868 580.408C350.103 580.332 349.36 580.106 348.683 579.743C348.005 579.38 347.406 578.888 346.919 578.293C346.433 577.699 346.068 577.015 345.846 576.28C345.568 575.361 345.474 574.397 345.569 573.442C345.664 572.488 345.947 571.561 346.401 570.715C346.854 569.869 347.471 569.121 348.214 568.514C348.958 567.906 349.814 567.451 350.734 567.174C353.055 566.473 355.56 566.723 357.697 567.867C359.835 569.011 361.43 570.956 362.131 573.275C362.964 576.011 362.733 578.961 361.486 581.536C360.841 582.846 359.937 584.012 358.828 584.963C357.72 585.915 356.43 586.632 355.036 587.072C353.642 587.512 352.174 587.666 350.719 587.524C349.264 587.381 347.853 586.946 346.571 586.244C344.081 584.865 341.747 582.214 340.851 577.228C340.584 575.581 340.67 573.897 341.101 572.286C341.533 570.674 342.301 569.172 343.355 567.878C348.775 561.153 359.226 561.323 364.491 568.172C364.781 568.548 365.064 568.95 365.341 569.378" stroke="#232323" stroke-width="2" stroke-miterlimit="10"/>
<path opacity="0.2" d="M250.231 542.747L300.996 551.357C290.693 556.059 286.773 561.895 285.624 566.9C285.002 569.614 285.214 572.004 285.582 573.714C285.669 574.121 285.765 574.489 285.862 574.816L248.134 568.74L250.231 542.747Z" fill="#232323" stroke="#232323" stroke-width="2"/>
<path d="M220.79 546.506L101.799 565.604C101.799 565.604 89.7413 568.279 91.108 581.356C91.4316 584.567 92.9035 587.565 95.2672 589.828C97.8073 592.251 101.645 594.848 105.847 593.972L225.707 570.325L220.79 546.506Z" fill="#8E3E00" stroke="#232323" stroke-width="2" stroke-miterlimit="10"/>
<path d="M108.061 594.165C115.534 593.255 120.802 586.024 119.827 578.013C118.852 570.002 112.004 564.246 104.531 565.155C97.058 566.065 91.7903 573.297 92.7652 581.308C93.7401 589.318 100.589 595.075 108.061 594.165Z" fill="#8E3E00" stroke="#232323" stroke-width="2" stroke-miterlimit="10"/>
<path d="M106.772 577.781C106.524 577.7 106.261 577.696 106.011 577.77C105.762 577.844 105.534 577.993 105.351 578.201C105.168 578.41 105.038 578.67 104.973 578.956C104.908 579.241 104.91 579.542 104.981 579.826C105.062 580.271 105.265 580.676 105.561 580.98C105.857 581.284 106.23 581.473 106.626 581.518C107.142 581.574 107.66 581.423 108.089 581.09C108.519 580.757 108.834 580.263 108.98 579.694C109.186 578.881 109.103 578.008 108.749 577.266C108.395 576.523 107.798 575.97 107.09 575.728C106.201 575.43 105.246 575.548 104.433 576.056C103.621 576.564 103.018 577.42 102.757 578.436C102.596 579.065 102.544 579.724 102.605 580.375C102.666 581.026 102.839 581.658 103.114 582.233C103.388 582.808 103.759 583.315 104.205 583.726C104.651 584.137 105.163 584.444 105.713 584.628C107.1 585.094 108.593 584.911 109.862 584.118C111.131 583.326 112.073 581.989 112.481 580.403C112.734 579.42 112.815 578.391 112.719 577.373C112.624 576.355 112.354 575.368 111.925 574.469C111.496 573.571 110.916 572.778 110.219 572.135C109.522 571.493 108.721 571.014 107.862 570.726C105.694 569.998 103.363 570.284 101.379 571.522C99.3964 572.76 97.9246 574.849 97.2877 577.328C96.5333 580.256 96.7701 583.402 97.951 586.139C98.5609 587.532 99.4112 588.768 100.451 589.775C101.49 590.781 102.697 591.536 103.998 591.994C105.3 592.452 106.669 592.603 108.023 592.439C109.377 592.274 110.688 591.798 111.877 591.038C114.188 589.545 116.343 586.695 117.141 581.354C117.377 579.596 117.285 577.801 116.871 576.086C116.457 574.372 115.73 572.777 114.739 571.407C109.64 564.281 99.9071 564.545 95.0512 571.895C94.7834 572.299 94.5229 572.73 94.2695 573.188" fill="#8E3E00"/>
<path d="M106.772 577.781C106.524 577.7 106.261 577.696 106.011 577.77C105.762 577.844 105.534 577.993 105.351 578.201C105.168 578.41 105.038 578.67 104.973 578.956C104.908 579.241 104.91 579.542 104.981 579.826C105.062 580.271 105.265 580.676 105.561 580.98C105.857 581.284 106.23 581.473 106.626 581.518C107.142 581.574 107.66 581.423 108.089 581.09C108.519 580.757 108.834 580.263 108.98 579.694C109.186 578.881 109.103 578.008 108.749 577.266C108.395 576.523 107.798 575.97 107.09 575.728C106.201 575.43 105.246 575.548 104.433 576.056C103.621 576.564 103.018 577.42 102.757 578.436C102.596 579.065 102.544 579.724 102.605 580.375C102.666 581.026 102.839 581.658 103.114 582.233C103.388 582.808 103.759 583.315 104.205 583.726C104.651 584.137 105.163 584.444 105.713 584.628C107.1 585.094 108.593 584.911 109.862 584.118C111.131 583.326 112.073 581.989 112.481 580.403C112.734 579.42 112.815 578.391 112.719 577.373C112.624 576.355 112.354 575.368 111.925 574.469C111.496 573.571 110.916 572.778 110.219 572.135C109.522 571.493 108.721 571.014 107.862 570.726C105.694 569.998 103.363 570.284 101.379 571.522C99.3964 572.76 97.9246 574.849 97.2877 577.328C96.5333 580.256 96.7701 583.402 97.951 586.139C98.5609 587.532 99.4112 588.768 100.451 589.775C101.49 590.781 102.697 591.536 103.998 591.994C105.3 592.452 106.669 592.603 108.023 592.439C109.377 592.274 110.688 591.798 111.877 591.038C114.188 589.545 116.343 586.695 117.141 581.354C117.377 579.596 117.285 577.801 116.871 576.086C116.457 574.372 115.73 572.777 114.739 571.407C109.64 564.281 99.9071 564.545 95.0512 571.895C94.7834 572.299 94.5229 572.73 94.2695 573.188" stroke="#232323" stroke-width="2" stroke-miterlimit="10"/>
<path opacity="0.2" d="M152.586 556.146L190.266 549.213L218.305 570.102L160.396 579.706C163.386 572.582 161.207 566.474 158.196 562.134C156.574 559.797 154.703 557.954 153.244 556.698C153.014 556.5 152.794 556.316 152.586 556.146Z" fill="#232323" stroke="#232323" stroke-width="2"/>
<path d="M226.923 571.142C226.923 571.142 175.494 572.322 151.956 535.029C151.956 535.029 138.865 518.152 140.412 488.498C140.785 480.456 143.54 472.709 148.321 466.254C151.921 461.455 156.587 457.604 161.487 459.943C161.487 459.943 168.192 462.351 165.661 475.741C165.383 477.161 165.024 478.564 164.585 479.942C163.224 484.281 159.143 499.756 171.12 497.313C173.237 496.874 175.246 496.014 177.028 494.784C178.81 493.553 180.33 491.976 181.499 490.146C185.878 483.293 189.947 468.894 178.727 441.793C178.727 441.793 165.202 410.291 190.746 389.63C191.356 389.176 192.014 388.792 192.708 388.486C197.663 386.224 203.411 389.391 204.307 394.787C204.821 397.883 204.628 400.604 203.283 404.038C201.485 408.532 200.752 413.386 201.141 418.214C201.741 424.977 204.185 431.963 212.341 427.527C215.132 425.994 217.461 423.734 219.084 420.983C222.707 414.905 228.878 401.34 224.103 385.274C223.48 383.227 222.961 381.148 222.549 379.048C220.88 370.2 218.998 351.581 233.021 352.709C235.281 352.915 237.478 353.569 239.485 354.634C241.492 355.699 243.27 357.153 244.716 358.913C249.853 365.053 257.181 377.871 252.759 398.08C252.14 400.86 251.32 403.592 250.306 406.252C247.718 413.138 240.57 435.741 255.364 442.549C255.364 442.549 264.791 447.183 279.884 433.421C284.26 429.373 289.362 426.2 294.918 424.073C302.654 421.164 310.653 421.633 314.445 429.446C315.818 432.31 316.332 435.515 315.925 438.668C315.283 443.745 312.531 452.101 302.14 459.452C301.726 459.746 301.298 460.021 300.855 460.289C296.681 462.906 271.137 479.602 276.888 493.956C276.888 493.956 279.874 502.59 290.833 496.693C293.978 494.975 296.663 492.518 298.662 489.532C301.989 484.63 308.845 476.184 314.22 480.485C314.818 480.968 315.272 481.608 315.532 482.335C315.792 483.061 315.848 483.845 315.694 484.601C314.258 491.636 309.448 507.802 300.727 525.125C300.46 525.652 300.197 526.185 299.943 526.718C297.558 531.717 277.058 571.688 226.923 571.142Z" fill="#FF862E" stroke="#232323" stroke-width="2" stroke-miterlimit="10"/>
<path d="M189.751 565.03C189.751 565.03 168.691 557.102 168.214 528.281C168.18 527.058 168.425 525.843 168.93 524.726C169.435 523.608 170.188 522.617 171.133 521.825C172.842 520.431 175.447 519.465 179.304 520.437C181.765 521.063 184.023 522.299 185.865 524.027C186.986 525.063 187.966 526.238 188.78 527.523C190.121 529.685 192.212 531.292 194.664 532.042C197.406 532.868 200.721 532.633 203.015 528.385C203.015 528.385 206.938 520.637 196.583 512.777C193.719 510.651 191.516 507.775 190.225 504.474C188.427 499.713 187.82 492.721 193.076 484.202C193.076 484.202 195.239 480.651 198.364 483.556C198.72 483.89 199.039 484.26 199.315 484.66C200.417 486.226 204.196 491.675 206.86 496.446C207.885 498.306 209.438 499.831 211.328 500.833C214.07 502.266 217.685 502.667 219.408 496.485C220.073 494.027 220.172 491.454 219.699 488.954C218.568 482.723 217.633 468.265 221.369 458.729C221.369 458.729 225.945 446.078 234.369 453.632C234.369 453.632 242.756 460.682 237.493 484.379C236.956 486.737 237.094 489.196 237.892 491.481C238.752 493.899 240.478 496.462 243.929 497.45C243.929 497.45 249.751 499.671 252.915 492.162C252.915 492.162 255.909 485.706 262.012 488.005C263.197 488.463 264.269 489.168 265.153 490.072C266.037 490.976 266.714 492.058 267.137 493.244C268.493 496.959 269.696 503.735 264.764 511.098C264.378 511.676 263.95 512.225 263.509 512.761C261.793 514.833 256.2 522.029 255.916 527.991C255.769 531.012 257.877 533.759 260.891 534.221C262.564 534.476 264.368 533.982 265.339 531.283C265.444 530.985 265.532 530.681 265.601 530.373C266.006 528.672 268.255 520.592 273.357 525.586C274.606 526.829 275.507 528.37 275.972 530.06C277.123 534.498 276.764 539.187 274.952 543.405C274.828 543.686 274.704 543.967 274.593 544.254C273.707 546.514 268.245 558.945 252.408 567.322C252.408 567.296 226.004 577.316 189.751 565.03Z" fill="#FFDA28" stroke="#232323" stroke-width="2" stroke-miterlimit="10"/>
</g>
<defs>
<clipPath id="clip0_1094_11001">
<rect width="832" height="650" fill="white"/>
</clipPath>
</defs>
</svg>
