<svg width="53" height="55" viewBox="0 0 53 55" fill="none" xmlns="http://www.w3.org/2000/svg">
<g id="Star 17" filter="url(#filter0_d_1418_23229)">
<path d="M21.1481 2.47484L31.9638 15.3033L48.5854 13.007L39.727 27.2576L47.0473 42.356L30.7568 38.3348L18.6594 49.9625L17.4497 33.2267L2.65288 25.3146L18.1957 18.9925L21.1481 2.47484Z" fill="#FFDA28"/>
<path d="M21.5304 2.15255L20.8435 1.33776L20.6559 2.38686L17.752 18.6332L2.46449 24.8514L1.47731 25.253L2.41711 25.7555L16.9709 33.5377L18.1607 49.9985L18.2376 51.0615L19.0059 50.323L30.9046 38.8863L46.9274 42.8414L47.9621 43.0968L47.4972 42.1379L40.2972 27.2874L49.01 13.271L49.5727 12.3659L48.517 12.5117L32.1684 14.7703L21.5304 2.15255Z" stroke="#232323"/>
</g>
<defs>
<filter id="filter0_d_1418_23229" x="0.300781" y="0.201172" width="52.2578" height="53.959" filterUnits="userSpaceOnUse" color-interpolation-filters="sRGB">
<feFlood flood-opacity="0" result="BackgroundImageFix"/>
<feColorMatrix in="SourceAlpha" type="matrix" values="0 0 0 0 0 0 0 0 0 0 0 0 0 0 0 0 0 0 127 0" result="hardAlpha"/>
<feOffset dx="2" dy="2"/>
<feComposite in2="hardAlpha" operator="out"/>
<feColorMatrix type="matrix" values="0 0 0 0 0 0 0 0 0 0 0 0 0 0 0 0 0 0 1 0"/>
<feBlend mode="normal" in2="BackgroundImageFix" result="effect1_dropShadow_1418_23229"/>
<feBlend mode="normal" in="SourceGraphic" in2="effect1_dropShadow_1418_23229" result="shape"/>
</filter>
</defs>
</svg>
