<svg width="55" height="57" viewBox="0 0 55 57" fill="none" xmlns="http://www.w3.org/2000/svg">
<g id="Star 18" filter="url(#filter0_d_1418_23230)">
<path d="M21.3864 2.47484L32.2021 15.3033L48.8237 13.007L39.9653 27.2576L47.2856 42.356L30.9951 38.3348L18.8977 49.9625L17.688 33.2267L2.89116 25.3146L18.434 18.9925L21.3864 2.47484Z" fill="#FFDA28"/>
<path d="M21.7687 2.15255L21.0817 1.33776L20.8942 2.38686L17.9903 18.6332L2.70278 24.8514L1.71559 25.253L2.6554 25.7555L17.2092 33.5377L18.399 49.9985L18.4758 51.0615L19.2442 50.323L31.1429 38.8863L47.1657 42.8414L48.2004 43.0968L47.7355 42.1379L40.5354 27.2874L49.2483 13.271L49.8109 12.3659L48.7552 12.5117L32.4067 14.7703L21.7687 2.15255Z" stroke="#232323"/>
</g>
<defs>
<filter id="filter0_d_1418_23230" x="0.539062" y="0.201172" width="54.2578" height="55.959" filterUnits="userSpaceOnUse" color-interpolation-filters="sRGB">
<feFlood flood-opacity="0" result="BackgroundImageFix"/>
<feColorMatrix in="SourceAlpha" type="matrix" values="0 0 0 0 0 0 0 0 0 0 0 0 0 0 0 0 0 0 127 0" result="hardAlpha"/>
<feOffset dx="4" dy="4"/>
<feComposite in2="hardAlpha" operator="out"/>
<feColorMatrix type="matrix" values="0 0 0 0 0.138846 0 0 0 0 0.138846 0 0 0 0 0.138846 0 0 0 1 0"/>
<feBlend mode="normal" in2="BackgroundImageFix" result="effect1_dropShadow_1418_23230"/>
<feBlend mode="normal" in="SourceGraphic" in2="effect1_dropShadow_1418_23230" result="shape"/>
</filter>
</defs>
</svg>
