<svg width="55" height="57" viewBox="0 0 55 57" fill="none" xmlns="http://www.w3.org/2000/svg">
<g id="Star 21" filter="url(#filter0_d_1418_23233)">
<path d="M21.0974 2.47484L31.9131 15.3033L48.5346 13.007L39.6762 27.2576L46.9965 42.356L30.706 38.3348L18.6086 49.9625L17.399 33.2267L2.6021 25.3146L18.1449 18.9925L21.0974 2.47484Z" fill="#FFDA28"/>
<path d="M21.4796 2.15255L20.7927 1.33776L20.6052 2.38686L17.7012 18.6332L2.41371 24.8514L1.42653 25.253L2.36633 25.7555L16.9201 33.5377L18.1099 49.9985L18.1868 51.0615L18.9551 50.323L30.8538 38.8863L46.8767 42.8414L47.9113 43.0968L47.4464 42.1379L40.2464 27.2874L48.9592 13.271L49.5219 12.3659L48.4662 12.5117L32.1177 14.7703L21.4796 2.15255Z" stroke="#232323"/>
</g>
<defs>
<filter id="filter0_d_1418_23233" x="0.25" y="0.201172" width="54.2578" height="55.959" filterUnits="userSpaceOnUse" color-interpolation-filters="sRGB">
<feFlood flood-opacity="0" result="BackgroundImageFix"/>
<feColorMatrix in="SourceAlpha" type="matrix" values="0 0 0 0 0 0 0 0 0 0 0 0 0 0 0 0 0 0 127 0" result="hardAlpha"/>
<feOffset dx="4" dy="4"/>
<feComposite in2="hardAlpha" operator="out"/>
<feColorMatrix type="matrix" values="0 0 0 0 0.138846 0 0 0 0 0.138846 0 0 0 0 0.138846 0 0 0 1 0"/>
<feBlend mode="normal" in2="BackgroundImageFix" result="effect1_dropShadow_1418_23233"/>
<feBlend mode="normal" in="SourceGraphic" in2="effect1_dropShadow_1418_23233" result="shape"/>
</filter>
</defs>
</svg>
