<svg width="55" height="57" viewBox="0 0 55 57" fill="none" xmlns="http://www.w3.org/2000/svg">
<g id="Star 20" filter="url(#filter0_d_1418_23232)">
<path d="M20.8591 2.47484L31.6748 15.3033L48.2963 13.007L39.4379 27.2576L46.7582 42.356L30.4677 38.3348L18.3704 49.9625L17.1607 33.2267L2.36382 25.3146L17.9067 18.9925L20.8591 2.47484Z" fill="#FFDA28"/>
<path d="M21.2414 2.15255L20.5544 1.33776L20.3669 2.38686L17.463 18.6332L2.17543 24.8514L1.18824 25.253L2.12805 25.7555L16.6818 33.5377L17.8717 49.9985L17.9485 51.0615L18.7168 50.323L30.6155 38.8863L46.6384 42.8414L47.6731 43.0968L47.2081 42.1379L40.0081 27.2874L48.721 13.271L49.2836 12.3659L48.2279 12.5117L31.8794 14.7703L21.2414 2.15255Z" stroke="#232323"/>
</g>
<defs>
<filter id="filter0_d_1418_23232" x="0.0117188" y="0.201172" width="54.2578" height="55.959" filterUnits="userSpaceOnUse" color-interpolation-filters="sRGB">
<feFlood flood-opacity="0" result="BackgroundImageFix"/>
<feColorMatrix in="SourceAlpha" type="matrix" values="0 0 0 0 0 0 0 0 0 0 0 0 0 0 0 0 0 0 127 0" result="hardAlpha"/>
<feOffset dx="4" dy="4"/>
<feComposite in2="hardAlpha" operator="out"/>
<feColorMatrix type="matrix" values="0 0 0 0 0.138846 0 0 0 0 0.138846 0 0 0 0 0.138846 0 0 0 1 0"/>
<feBlend mode="normal" in2="BackgroundImageFix" result="effect1_dropShadow_1418_23232"/>
<feBlend mode="normal" in="SourceGraphic" in2="effect1_dropShadow_1418_23232" result="shape"/>
</filter>
</defs>
</svg>
