<svg width="102" height="61" viewBox="0 0 102 61" fill="none" xmlns="http://www.w3.org/2000/svg">
<path id="Vector" d="M41.6433 54.7944L41.6621 54.888L41.6926 54.9784C42.1683 56.3873 41.6039 57.6486 40.5399 58.3907C39.4633 59.1416 38.0013 59.2652 36.779 58.3815C36.7352 58.3498 36.6725 58.2951 36.5746 58.1934L35.4956 59.2316L36.5745 58.1934C35.3599 56.9311 28.5827 50.0116 19.8052 43.5055C11.3504 37.2385 5.38438 34.5845 3.90705 33.9744C3.76153 33.9143 3.67661 33.8664 3.62468 33.8288C1.96206 32.6276 1.39695 30.9511 1.51452 29.3341C1.63728 27.6456 2.49506 26.1601 3.50504 25.4624C3.5341 25.4424 3.6136 25.3995 3.83774 25.3391C5.54705 24.8785 11.5347 23.0052 19.8264 17.542C28.6597 11.7221 35.9532 4.18175 37.2499 2.81265C37.3555 2.70107 37.4227 2.64226 37.4694 2.60877C38.6717 1.74713 40.1129 1.85689 41.1847 2.58354C42.2441 3.30176 42.8238 4.53485 42.4002 5.93162L42.3861 5.97814L42.3751 6.02548L40.6472 13.4178C40.3725 14.3609 39.8886 16.9885 39.6625 19.3599C39.5472 20.5689 39.4874 21.8198 39.5831 22.8005C39.629 23.2713 39.7226 23.8243 39.9527 24.3C40.1909 24.7922 40.7828 25.5527 41.8523 25.4955L41.8615 25.4949L41.8675 25.4946L41.8692 25.4945L41.8692 25.4945C41.954 25.4893 84.9885 22.8767 96.9711 21.242C97.6836 21.1448 98.1723 21.4516 98.3436 21.7995C99.8457 24.8505 100.591 29.1793 100.491 33.1858C100.442 35.1762 100.185 37.0263 99.7417 38.5453C99.2904 40.0932 98.6888 41.1519 98.0573 41.7262C97.9772 41.799 97.9047 41.8419 97.8023 41.877C96.9907 42.1556 95.5311 42.3762 93.4603 42.5062C91.4305 42.6337 88.9415 42.668 86.1515 42.6304C80.5738 42.5553 73.8731 42.1942 67.3935 41.7432C54.4587 40.8427 42.4835 39.5895 42.2576 39.5658C42.2573 39.5657 42.257 39.5657 42.2567 39.5657C42.2567 39.5657 42.2567 39.5657 42.2566 39.5657L42.2412 39.5639L42.217 39.5615L42.2169 39.5615C41.3764 39.4836 40.7304 39.9092 40.3555 40.4335C40.0371 40.8787 39.8965 41.4009 39.8223 41.811C39.6686 42.6608 39.6864 43.7214 39.7628 44.7139C39.9112 46.6431 40.3275 48.8289 40.6445 49.829L41.6433 54.7944Z" fill="#FFD361" stroke="#232323" stroke-width="3" stroke-miterlimit="10"/>
</svg>
