<svg width="102" height="61" viewBox="0 0 102 61" fill="none" xmlns="http://www.w3.org/2000/svg">
<path id="Vector" d="M60.3567 6.20562L60.3379 6.11205L60.3074 6.02161C59.8317 4.61269 60.3961 3.35146 61.4601 2.60932C62.5367 1.85838 63.9987 1.73485 65.221 2.61852C65.2648 2.6502 65.3275 2.70487 65.4254 2.80661L66.5044 1.76839L65.4255 2.80662C66.6401 4.0689 73.4173 10.9885 82.1948 17.4945C90.6496 23.7615 96.6156 26.4155 98.0929 27.0256C98.2385 27.0857 98.3234 27.1337 98.3753 27.1712C100.038 28.3724 100.603 30.049 100.485 31.6659C100.363 33.3545 99.5049 34.8399 98.495 35.5376C98.4659 35.5577 98.3864 35.6005 98.1622 35.6609C96.4529 36.1216 90.4653 37.9949 82.1736 43.458C73.3403 49.2779 66.0467 56.8183 64.7501 58.1874C64.6444 58.299 64.5773 58.3578 64.5306 58.3913C63.3283 59.2529 61.8871 59.1431 60.8153 58.4165C59.7559 57.6983 59.1762 56.4652 59.5997 55.0684L59.6138 55.0219L59.6249 54.9745L61.3528 47.5822C61.6275 46.6392 62.1114 44.0115 62.3375 41.6401C62.4528 40.4311 62.5126 39.1802 62.4169 38.1995C62.3709 37.7288 62.2774 37.1758 62.0472 36.7C61.8091 36.2078 61.2172 35.4474 60.1477 35.5045L60.1385 35.5051L60.1325 35.5054L60.1308 35.5055L60.1308 35.5055C60.046 35.5107 17.0115 38.1233 5.02887 39.758C4.31639 39.8552 3.82772 39.5484 3.65642 39.2005C2.15429 36.1495 1.40909 31.8207 1.50882 27.8142C1.55837 25.8238 1.81548 23.9737 2.25834 22.4547C2.70962 20.9068 3.31121 19.8481 3.94274 19.2738C4.02278 19.201 4.09526 19.1581 4.19768 19.123C5.00929 18.8444 6.46887 18.6238 8.53969 18.4938C10.5695 18.3663 13.0585 18.332 15.8485 18.3696C21.4262 18.4447 28.1269 18.8058 34.6065 19.2569C47.5413 20.1573 59.5165 21.4106 59.7424 21.4342C59.7427 21.4343 59.743 21.4343 59.7433 21.4343C59.7433 21.4343 59.7433 21.4343 59.7434 21.4343L59.7588 21.4361L59.783 21.4385L59.7831 21.4385C60.6236 21.5165 61.2696 21.0908 61.6445 20.5665C61.9629 20.1213 62.1035 19.5991 62.1777 19.189C62.3314 18.3393 62.3136 17.2786 62.2372 16.2861C62.0888 14.3569 61.6725 12.1712 61.3555 11.1711L60.3567 6.20562Z" fill="#FFD361" stroke="#232323" stroke-width="3" stroke-miterlimit="10"/>
</svg>
