<svg width="111" height="146" viewBox="0 0 111 146" fill="none" xmlns="http://www.w3.org/2000/svg">
<path id="Vector" d="M42.7877 109.921L42.1539 108.819L41.4959 109.907L24.6931 137.685L18.4384 108.188L18.2394 107.25L17.3767 107.669L-16.3419 124.066L5.23005 89.1677L5.87948 88.1171L4.64774 88.0254L-37.0924 84.9195L4.65022 65.3347L5.48724 64.942L4.93034 64.204L-14.8615 37.9755L20.9653 38.8148L21.6693 38.8312L21.7301 38.1297L24.786 2.86652L41.7826 38.4344L42.1721 39.2494L42.9016 38.7168L74.8523 15.388L67.0041 49.2941L66.7735 50.2904L67.7931 50.2109L107.499 47.1148L76.5159 69.6097L75.5382 70.3196L76.6082 70.8808L97.6948 81.9409L77.8559 88.9417L76.9557 89.2593L77.4773 90.0587L96.3333 118.96L64.0767 105.212L63.0636 104.78L63.0329 105.881L61.9889 143.301L42.7877 109.921Z" fill="#FFDA28" stroke="#232323" stroke-width="1.5"/>
</svg>
