<svg width="151" height="146" viewBox="0 0 151 146" fill="none" xmlns="http://www.w3.org/2000/svg">
<path id="Vector" d="M83.1627 109.86L82.5289 108.758L81.8709 109.846L65.0681 137.625L58.8134 108.128L58.6144 107.189L57.7517 107.609L24.0331 124.005L45.605 89.1072L46.2545 88.0565L45.0227 87.9649L3.28257 84.859L45.0252 65.2742L45.8622 64.8815L45.3053 64.1434L25.5135 37.9149L61.3403 38.7542L62.0443 38.7707L62.1051 38.0692L65.161 2.80598L82.1576 38.3739L82.5471 39.1889L83.2766 38.6562L115.227 15.3274L107.379 49.2335L107.149 50.2299L108.168 50.1504L147.874 47.0543L116.891 69.5492L115.913 70.2591L116.983 70.8203L138.07 81.8803L118.231 88.8811L117.331 89.1988L117.852 89.9982L136.708 118.899L104.452 105.151L103.439 104.719L103.408 105.82L102.364 143.241L83.1627 109.86Z" fill="#FFDA28" stroke="#232323" stroke-width="1.5"/>
</svg>
